<?xml version="1.0" encoding="utf-8"?>
<!-- Generator: Adobe Illustrator 27.6.1, SVG Export Plug-In . SVG Version: 6.00 Build 0)  -->
<svg version="1.1" id="a" xmlns="http://www.w3.org/2000/svg" xmlns:xlink="http://www.w3.org/1999/xlink" x="0px" y="0px"
	 viewBox="0 0 60 60" style="enable-background:new 0 0 60 60;" xml:space="preserve">
<style type="text/css">
	.st0{fill:#0060C7;}
	.st1{fill:#0382E2;}
	.st2{fill:#00C1D6;}
	.st3{fill:#004697;}
	.st4{fill:#B4CE00;}
	.st5{fill:#FFFFFF;}
</style>
<g>
	<path class="st0" d="M39.9,2c-0.3-0.1-0.5-0.2-0.8-0.3c0,0,0,0,0,0C38.5,1.4,38,1.2,37.4,1c0,0,0,0,0,0c0,0,0,0,0,0
		c-0.6-0.2-1.2-0.3-1.8-0.5c0,0,0,0,0,0c-0.6-0.1-1.2-0.3-1.9-0.4C33.1,0.1,32.4,0,31.8,0c0,0,0,0,0,0c-1.9-0.1-3.8-0.1-5.6,0.2
		c-1.7,2.4-3.4,5-5.1,8.1c-2.6,4.8-4.6,9.8-8,14.2c-2.2,2.9-5.1,5-8.1,6.9c0.5,2.2,1.3,4.3,2.3,6.2h0C7.5,36,7.7,36.4,8,36.8
		c0,0,0,0,0,0c0.1,0.2,0.3,0.5,0.4,0.7c9.4-5.8,19.6-9.3,25.7-17.2c0,0,0,0,0,0c1.6-2,2.9-4.3,3.8-6.7c1.4-3.6,2.2-7.5,2.7-11.4
		C40.4,2.2,40.2,2.1,39.9,2C39.9,2,39.9,2,39.9,2z"/>
	<path class="st1" d="M53.9,17.2C53.9,17.2,53.9,17.2,53.9,17.2c-0.3-0.9-0.7-1.8-1.1-2.7c0,0,0-0.1,0-0.1c0,0,0,0,0,0l0,0
		c-1.4-3-3.4-5.7-5.9-7.9c0,0,0,0,0,0c-0.4-0.4-0.9-0.8-1.4-1.2c0,0,0,0,0,0c-0.5-0.4-1-0.7-1.5-1.1c0,0,0,0,0,0c0,0,0,0,0,0
		c0,0,0,0,0,0c0,0,0,0,0,0c-0.5-0.3-1-0.7-1.5-1c0,0,0,0,0,0c-0.6-0.3-1.1-0.6-1.7-0.9c-0.6,4.5-2,9-4,13.1c-3.2,6.8-8.9,11-15,14.6
		c-4.3,2.5-9,4.7-13.3,7.5C8.7,38,9,38.5,9.4,38.9c7.1,4.1,13.3,7,17.9,10.7c3.8-15.5,12.9-19.5,26.5-25c0.5-0.2,1-0.5,1.4-0.7
		C55,21.5,54.6,19.3,53.9,17.2C53.9,17.2,53.9,17.2,53.9,17.2z"/>
	<g>
		<path class="st2" d="M28,45.3c-0.5,1.5-0.8,2.9-0.8,4.3c2.6,2.1,4.6,4.3,5.9,7.2c5.2-5.1,9.6-9.9,14.3-15.2c0,0,0,0,0,0
			c4.4-4.9,8.3-10.8,7.7-17.8c-3.4,1.5-7,2.9-10.3,4.5C37.4,31.9,30.9,36.4,28,45.3z"/>
		<path class="st3" d="M13,22.4c3.4-4.4,5.4-9.4,8-14.2c1.7-3.1,3.4-5.7,5.1-8.1C13.4,2,3.9,13.4,4.5,26.3c0,0,0,0,0,0
			c0.1,1,0.2,2,0.4,3C7.9,27.4,10.8,25.3,13,22.4L13,22.4L13,22.4z"/>
		<path class="st4" d="M27.2,49.6C22.7,46,16.5,43,9.4,38.9c2,2.7,4.3,5.2,6.7,7.7c1.6,1.7,3.4,3.4,5,5h0c3.5,3.5,6.9,6.7,8.8,8.5
			c1.1-1.1,2.3-2.2,3.4-3.4C31.9,53.9,29.8,51.6,27.2,49.6z"/>
	</g>
</g>
<path class="st5" d="M50.6,21.4c-0.1-0.1-0.2-0.1-0.3-0.2c-1.1-0.9-2.3-1.8-3.6-2.5C45.9,18.2,45,18,44,18.1
	c-0.6,0.1-1.2,0.1-1.8,0.1c-1.1,0-2.1-0.2-3-0.7c-0.4-0.2-0.8-0.5-1.2-0.7c-2.4-1.1-4.9-1.5-7.5-1.2c-1.5,0.2-2.9,0.7-4.2,1.5
	c-1.7,1.1-2.9,2.7-3.8,4.5c-0.5,1.1-1,2.3-1.2,3.6c-0.1,0.6-0.3,1.2-0.4,1.9c-0.2,1.4-0.3,2.8-0.4,4.2c0,0,0,0.1,0,0.1
	c0,0-0.1,0-0.1,0c-1.7-0.4-3.4-0.8-5.1-1c-1.4-0.2-2.8-0.3-4.2-0.2c-0.6,0.1-1.2,0.2-1.7,0.5c-1,0.6-1,1.8,0,2.4
	c0.4,0.3,0.8,0.4,1.2,0.5c1.2,0.3,2.4,0.3,3.6,0.3c2,0,4-0.3,6-0.6c0.1,0,0.2,0,0.3,0c0.3,0.1,0.5,0.1,0.8,0.2l10.2,0.2
	c3.1,0,6.3,0,9.4,0c0.1,0,0.1,0,0.2,0c-0.1-0.5-0.4-0.8-0.8-0.9c-0.2,0-0.5-0.1-0.8-0.1c-1.2,0-2.4,0-3.7,0h-0.3
	c0.1-0.3,0.1-0.5,0.2-0.8c0.1-0.4,0.4-0.6,0.8-0.5c0.1,0,0.2,0,0.3,0c0.6,0.1,1.1,0.1,1.7,0c0.9-0.2,1.7-0.5,2.5-0.9
	c0.5-0.3,1.1-0.6,1.6-0.9c0.3-0.1,0.5-0.2,0.8-0.1c0.5,0.1,0.9,0.3,1.3,0.5c0.3,0.5,0.7,0.6,0.9,0.8c0.5,0.3,0.5-0.1,0.5-0.5
	c0-0.3-0.1-0.5-0.4-0.8c-0.1-0.1-0.5-0.3-0.6-0.4c-0.2-0.1-0.4-0.2-0.4-0.5c0-0.3-0.1-0.5-0.1-0.8c0-0.6,0.3-1,1-1.2
	c0.3-0.1,0.6-0.1,0.9-0.1c1-0.2,1.9-0.6,2.7-1c0.1,0,0.1-0.1,0.1-0.2c0-0.2,0-0.3,0.1-0.5c0.1-0.3,0.2-0.4,0.5-0.3
	c0.2,0.1,0.3,0,0.5-0.2c0.3-0.4,0.4-0.9,0.5-1.3c0-0.1,0-0.2,0.1-0.4C51.3,22.2,51.1,21.7,50.6,21.4L50.6,21.4z"/>
</svg>
