<?xml version="1.0" encoding="UTF-8" standalone="no"?>
<svg
   width="1024"
   height="1024"
   viewBox="0 0 1024 1024"
   version="1.1"
   xml:space="preserve"
   style="clip-rule:evenodd;fill-rule:evenodd;stroke-linejoin:round;stroke-miterlimit:2"
   id="svg7"
   xmlns:xlink="http://www.w3.org/1999/xlink"
   xmlns="http://www.w3.org/2000/svg"
   xmlns:svg="http://www.w3.org/2000/svg"><defs
   id="defs7"><linearGradient
     id="swatch16"><stop
       style="stop-color:#ffffff;stop-opacity:1;"
       offset="0"
       id="stop16" /></linearGradient><linearGradient
     id="swatch15"><stop
       style="stop-color:#0060c7;stop-opacity:1;"
       offset="0"
       id="stop15" /></linearGradient><linearGradient
     id="swatch14"><stop
       style="stop-color:#b4ce00;stop-opacity:1;"
       offset="0"
       id="stop14" /></linearGradient><linearGradient
     id="swatch13"><stop
       style="stop-color:#004697;stop-opacity:1;"
       offset="0"
       id="stop13" /></linearGradient><linearGradient
     id="swatch12"><stop
       style="stop-color:#00c1d6;stop-opacity:1;"
       offset="0"
       id="stop12" /></linearGradient><linearGradient
     id="swatch11"><stop
       style="stop-color:#0382e2;stop-opacity:1;"
       offset="0"
       id="stop11" /></linearGradient><style
     id="style1">
      .cls-1 {
        fill: #0382e2;
      }

      .cls-1, .cls-2, .cls-3, .cls-4, .cls-5, .cls-6 {
        stroke-width: 0px;
      }

      .cls-2 {
        fill: #00c1d6;
      }

      .cls-3 {
        fill: #b4ce00;
      }

      .cls-4 {
        fill: #fff;
      }

      .cls-5 {
        fill: #0060c7;
      }

      .cls-6 {
        fill: #004697;
      }
    </style><style
     id="style1-9">
      .cls-1 {
        fill: #0382e2;
      }

      .cls-1, .cls-2, .cls-3, .cls-4, .cls-5, .cls-6 {
        stroke-width: 0px;
      }

      .cls-2 {
        fill: #00c1d6;
      }

      .cls-3 {
        fill: #b4ce00;
      }

      .cls-4 {
        fill: #fff;
      }

      .cls-5 {
        fill: #0060c7;
      }

      .cls-6 {
        fill: #004697;
      }
    </style><style
     id="style1-7">
      .cls-1 {
        fill: #fff;
      }

      .cls-1, .cls-2 {
        stroke-width: 0px;
      }

      .cls-2 {
        fill: #004697;
      }
    </style><clipPath
     clipPathUnits="userSpaceOnUse"
     id="clipPath92"><circle
       cx="512"
       cy="512"
       style="clip-rule:evenodd;display:inline;fill:url(#swatch16);fill-rule:evenodd;stroke:none;stroke-linejoin:round;stroke-miterlimit:2"
       id="circle92"
       clip-path="none"
       r="450" /></clipPath><clipPath
     clipPathUnits="userSpaceOnUse"
     id="clipPath91"><circle
       cx="512"
       cy="512"
       style="clip-rule:evenodd;display:inline;fill:url(#swatch16);fill-rule:evenodd;stroke:none;stroke-linejoin:round;stroke-miterlimit:2"
       id="circle91"
       clip-path="none"
       r="450" /></clipPath><clipPath
     clipPathUnits="userSpaceOnUse"
     id="clipPath90"><circle
       cx="512"
       cy="512"
       style="clip-rule:evenodd;display:inline;fill:url(#swatch16);fill-rule:evenodd;stroke:none;stroke-linejoin:round;stroke-miterlimit:2"
       id="circle90"
       clip-path="none"
       r="450" /></clipPath><clipPath
     clipPathUnits="userSpaceOnUse"
     id="clipPath89"><circle
       cx="512"
       cy="512"
       style="clip-rule:evenodd;display:inline;fill:url(#swatch16);fill-rule:evenodd;stroke:none;stroke-linejoin:round;stroke-miterlimit:2"
       id="circle89"
       clip-path="none"
       r="450" /></clipPath><clipPath
     clipPathUnits="userSpaceOnUse"
     id="clipPath88"><circle
       cx="512"
       cy="512"
       style="clip-rule:evenodd;display:inline;fill:url(#swatch16);fill-rule:evenodd;stroke:none;stroke-linejoin:round;stroke-miterlimit:2"
       id="circle88"
       clip-path="none"
       r="450" /></clipPath><linearGradient
     xlink:href="#swatch13"
     id="linearGradient20"
     gradientUnits="userSpaceOnUse"
     x1="132"
     y1="512"
     x2="892"
     y2="512" /><clipPath
     clipPathUnits="userSpaceOnUse"
     id="clipPath87"><circle
       cx="512"
       cy="512"
       style="clip-rule:evenodd;display:inline;fill:url(#swatch16);fill-rule:evenodd;stroke:none;stroke-linejoin:round;stroke-miterlimit:2"
       id="circle87"
       clip-path="none"
       r="450" /></clipPath></defs>
    
    <g
   id="g7"
   clip-path="none"
   style="clip-rule:evenodd;fill-rule:evenodd;stroke-linejoin:round;stroke-miterlimit:2"><ellipse
     style="clip-rule:evenodd;fill:url(#swatch11);fill-rule:evenodd;stroke-width:11.3386;stroke-linecap:round;stroke-linejoin:round;stroke-miterlimit:2"
     id="ellipse3"
     cx="642.73987"
     cy="547.76453"
     rx="726.67151"
     ry="636.11365"
     clip-path="url(#clipPath92)" /><ellipse
     style="clip-rule:evenodd;fill:url(#swatch12);fill-rule:evenodd;stroke-width:17.6384;stroke-linecap:round;stroke-linejoin:round;stroke-miterlimit:2"
     id="ellipse4"
     cx="1709.9685"
     cy="818.11798"
     rx="1220.5096"
     ry="449.45505"
     clip-path="url(#clipPath91)" /><ellipse
     style="clip-rule:evenodd;fill:url(#swatch14);fill-rule:evenodd;stroke-width:14.1512;stroke-linecap:round;stroke-linejoin:round;stroke-miterlimit:2"
     id="ellipse5"
     cx="81.016731"
     cy="997.836"
     rx="598.13824"
     ry="328.4375"
     clip-path="url(#clipPath90)" /><ellipse
     style="display:inline;fill:url(#swatch15);stroke-width:10.961;stroke-linecap:round;stroke-linejoin:round"
     id="ellipse6"
     cx="-280.50845"
     cy="-132.46214"
     rx="1044.7284"
     ry="755.44653"
     clip-path="url(#clipPath89)" /><ellipse
     style="fill:url(#swatch13);stroke-width:11.3386;stroke-linecap:round;stroke-linejoin:round"
     id="ellipse7"
     cx="-552.18201"
     cy="-267.2561"
     rx="1069.0244"
     ry="912.20465"
     clip-path="url(#clipPath88)" /><circle
     style="clip-rule:evenodd;display:inline;fill:url(#linearGradient20);fill-opacity:1;fill-rule:evenodd;stroke:none;stroke-width:1.43092;stroke-linejoin:round;stroke-miterlimit:2"
     id="circle7"
     cx="512"
     cy="512"
     r="380"
     clip-path="url(#clipPath87)"><desc
       id="desc7">This is the background behind the text</desc></circle></g>
<g
   id="layer1"><path
     d="m 42,-120 v -112 q 0,-33 17,-62 17,-29 47,-44 51,-26 115,-44 64,-18 141,-18 77,0 141,18 64,18 115,44 30,15 47,44 17,29 17,62 v 112 z m 320,-320 q -66,0 -113,-47 -47,-47 -47,-113 h -10 q -9,0 -14.5,-5.5 -5.5,-5.5 -5.5,-14.5 0,-9 5.5,-14.5 5.5,-5.5 14.5,-5.5 h 10 q 0,-45 22,-81 22,-36 58,-57 v 38 q 0,9 5.5,14.5 5.5,5.5 14.5,5.5 9,0 14.5,-5.5 5.5,-5.5 5.5,-14.5 v -54 q 9,-3 19,-4.5 10,-1.5 21,-1.5 11,0 21,1.5 10,1.5 19,4.5 v 54 q 0,9 5.5,14.5 5.5,5.5 14.5,5.5 9,0 14.5,-5.5 5.5,-5.5 5.5,-14.5 v -38 q 36,21 58,57 22,36 22,81 h 10 q 9,0 14.5,5.5 5.5,5.5 5.5,14.5 0,9 -5.5,14.5 -5.5,5.5 -14.5,5.5 h -10 q 0,66 -47,113 -47,47 -113,47 z m 0,-80 q 33,0 56.5,-23.5 Q 442,-567 442,-600 H 282 q 0,33 23.5,56.5 23.5,23.5 56.5,23.5 z m 300,160 -6,-30 q -6,-2 -11.5,-4.5 Q 639,-397 634,-402 l -28,10 -20,-36 22,-20 v -24 l -22,-20 20,-36 28,10 q 4,-4 10,-7 6,-3 12,-5 l 6,-30 h 40 l 6,30 q 6,2 12,5 6,3 10,7 l 28,-10 20,36 -22,20 v 24 l 22,20 -20,36 -28,-10 q -5,5 -10.5,7.5 -5.5,2.5 -11.5,4.5 l -6,30 z m 20,-70 q 12,0 21,-9 9,-9 9,-21 0,-12 -9,-21 -9,-9 -21,-9 -12,0 -21,9 -9,9 -9,21 0,12 9,21 9,9 21,9 z m 72,-130 -8,-42 q -9,-3 -16.5,-7.5 Q 722,-614 716,-620 l -42,14 -28,-48 34,-30 q -2,-5 -2,-8 v -16 q 0,-3 2,-8 l -34,-30 28,-48 42,14 q 6,-6 13.5,-10.5 7.5,-4.5 16.5,-7.5 l 8,-42 h 56 l 8,42 q 9,3 16.5,7.5 7.5,4.5 13.5,10.5 l 42,-14 28,48 -34,30 q 2,5 2,8 v 16 q 0,3 -2,8 l 34,30 -28,48 -42,-14 q -6,6 -13.5,10.5 -7.5,4.5 -16.5,7.5 l -8,42 z m 28,-90 q 21,0 35.5,-14.5 Q 832,-679 832,-700 832,-721 817.5,-735.5 803,-750 782,-750 q -21,0 -35.5,14.5 -14.5,14.5 -14.5,35.5 0,21 14.5,35.5 14.5,14.5 35.5,14.5 z"
     id="path1"
     style="clip-rule:evenodd;fill-rule:evenodd;stroke-linejoin:round;stroke-miterlimit:2;fill:url(#swatch16)"
     transform="matrix(0.59495325,0,0,0.59495325,226.42244,797.57756)" /></g></svg>
