<?xml version="1.0" encoding="utf-8"?>
<!-- Generator: Adobe Illustrator 27.6.1, SVG Export Plug-In . SVG Version: 6.00 Build 0)  -->
<svg version="1.1" id="a" xmlns="http://www.w3.org/2000/svg" xmlns:xlink="http://www.w3.org/1999/xlink" x="0px" y="0px"
	 viewBox="0 0 60 60" style="enable-background:new 0 0 60 60;" xml:space="preserve">
<style type="text/css">
	.st0{fill:#0060C7;}
	.st1{fill:#0382E2;}
	.st2{fill:#00C1D6;}
	.st3{fill:#004697;}
	.st4{fill:#B4CE00;}
	.st5{fill:#FFFFFF;}
</style>
<g>
	<path class="st0" d="M40.9,2c-0.3-0.1-0.5-0.2-0.8-0.3c0,0,0,0,0,0c-0.6-0.2-1.2-0.4-1.7-0.6c0,0,0,0,0,0c0,0,0,0,0,0
		c-0.6-0.2-1.2-0.3-1.8-0.5c0,0,0,0,0,0c-0.6-0.1-1.2-0.3-1.9-0.4C34,0.1,33.4,0,32.8,0c0,0,0,0,0,0c-1.9-0.1-3.8-0.1-5.6,0.2
		c-1.7,2.4-3.4,5-5.1,8.1c-2.6,4.8-4.6,9.8-8,14.2c-2.2,2.9-5.1,5-8.1,6.9c0.5,2.2,1.3,4.3,2.3,6.2h0C8.4,36,8.7,36.4,9,36.8
		c0,0,0,0,0,0c0.1,0.2,0.3,0.5,0.4,0.7c9.4-5.8,19.6-9.3,25.7-17.2c0,0,0,0,0,0c1.6-2,2.9-4.3,3.8-6.7c1.4-3.6,2.2-7.5,2.7-11.4
		C41.4,2.2,41.1,2.1,40.9,2C40.9,2,40.9,2,40.9,2z"/>
	<path class="st1" d="M54.9,17.2C54.9,17.2,54.9,17.2,54.9,17.2c-0.3-0.9-0.7-1.8-1.1-2.7c0,0,0-0.1,0-0.1c0,0,0,0,0,0l0,0
		c-1.4-3-3.4-5.7-5.9-7.9c0,0,0,0,0,0c-0.4-0.4-0.9-0.8-1.4-1.2c0,0,0,0,0,0c-0.5-0.4-1-0.7-1.5-1.1c0,0,0,0,0,0c0,0,0,0,0,0
		c0,0,0,0,0,0c0,0,0,0,0,0c-0.5-0.3-1-0.7-1.5-1c0,0,0,0,0,0c-0.6-0.3-1.1-0.6-1.7-0.9c-0.6,4.5-2,9-4,13.1c-3.2,6.8-8.9,11-15,14.6
		c-4.3,2.5-9,4.7-13.3,7.5c0.3,0.5,0.6,0.9,0.9,1.4c7.1,4.1,13.3,7,17.9,10.7c3.8-15.5,12.9-19.5,26.5-25c0.5-0.2,1-0.5,1.4-0.7
		C56,21.5,55.6,19.3,54.9,17.2C54.9,17.2,54.9,17.2,54.9,17.2z"/>
	<g>
		<path class="st2" d="M29,45.3c-0.5,1.5-0.8,2.9-0.8,4.3c2.6,2.1,4.6,4.3,5.9,7.2c5.2-5.1,9.6-9.9,14.3-15.2c0,0,0,0,0,0
			c4.4-4.9,8.3-10.8,7.7-17.8c-3.4,1.5-7,2.9-10.3,4.5C38.4,31.9,31.9,36.4,29,45.3z"/>
		<path class="st3" d="M14,22.4c3.4-4.4,5.4-9.4,8-14.2c1.7-3.1,3.4-5.7,5.1-8.1C14.4,2,4.9,13.4,5.5,26.3c0,0,0,0,0,0
			c0.1,1,0.2,2,0.4,3C8.9,27.4,11.8,25.3,14,22.4L14,22.4L14,22.4z"/>
		<path class="st4" d="M28.2,49.6C23.7,46,17.5,43,10.4,38.9c2,2.7,4.3,5.2,6.7,7.7c1.6,1.7,3.4,3.4,5,5h0c3.5,3.5,6.9,6.7,8.8,8.5
			c1.1-1.1,2.3-2.2,3.4-3.4C32.8,53.9,30.8,51.6,28.2,49.6z"/>
	</g>
</g>
<g>
	<g id="b">
		<g id="c">
			<path id="d" class="st5" d="M14.3,38.9l11.6-26.5h0.6l11,26.5L14.3,38.9L14.3,38.9z M32.9,37.3l-7.7-19l-8.4,19H32.9z"/>
		</g>
	</g>
	<g>
		<path class="st5" d="M36.1,15.4c-1.5-0.3-2.5-1.6-2.2-3.3c0.3-1.8,1.5-2.5,3-2.2c0.7,0.1,1.4,0.7,1.8,1.5l-0.3,1.1
			c-0.4-0.9-0.9-1.3-1.4-1.4c-0.9-0.2-1.5,0.3-1.6,1.3c-0.2,1.1,0.3,1.7,1,1.9c1,0.2,1.8-0.6,2.2-2.7c0.5-2.6-0.3-3.6-1.4-3.8
			C36.6,7.5,36,7.7,35.6,8l-0.7-1.1c0.6-0.4,1.4-0.8,2.5-0.6c1.8,0.3,3.2,2,2.6,5.4C39.4,14.6,37.8,15.7,36.1,15.4z"/>
		<path class="st5" d="M40.8,14.6l2.1-2.8l-1.8,0l0-1.1l3.5,0.1l0,0.8l-2.1,2.8l2.1,0.1l0,1.1l-3.8-0.1
			C40.8,15.4,40.8,14.6,40.8,14.6z"/>
	</g>
	<g>
		<path class="st5" d="M35.9,28.7c-1.5-0.3-2.5-1.6-2.2-3.3c0.3-1.8,1.5-2.5,3-2.2c0.7,0.1,1.4,0.7,1.8,1.5l-0.3,1.1
			c-0.4-0.9-0.9-1.3-1.4-1.4c-0.9-0.2-1.5,0.3-1.6,1.3c-0.2,1.1,0.3,1.7,1,1.9c1,0.2,1.8-0.6,2.2-2.7c0.5-2.6-0.3-3.6-1.4-3.8
			c-0.5-0.1-1.1,0.1-1.5,0.4l-0.7-1.1c0.6-0.4,1.4-0.8,2.5-0.6c1.8,0.3,3.2,2,2.6,5.4C39.3,27.9,37.6,29,35.9,28.7z"/>
		<path class="st5" d="M41.7,26.5l0.1-2.2l-0.8,0l0.1-1.2l0.9,0l0.3-1.5l1.4,0.1l-0.1,1.5l1.3,0.1l-0.1,1.3l-1.3-0.1l-0.1,2.2
			c0,0.6,0.2,0.9,0.7,0.9c0.2,0,0.4,0,0.5-0.1l0.2,1.2c-0.3,0.1-0.7,0.2-1.2,0.1C42.1,28.7,41.6,27.8,41.7,26.5z"/>
	</g>
	<path class="st4" d="M45.7,18.2H32.8c-0.2,0-0.3-0.1-0.3-0.3s0.1-0.3,0.3-0.3h12.9c0.2,0,0.3,0.1,0.3,0.3S45.9,18.2,45.7,18.2z"/>
</g>
</svg>
