<?xml version="1.0" encoding="UTF-8" standalone="no"?>
<svg
   width="1024"
   height="1024"
   viewBox="0 0 1024 1024"
   version="1.1"
   xml:space="preserve"
   style="clip-rule:evenodd;fill-rule:evenodd;stroke-linejoin:round;stroke-miterlimit:2"
   id="svg7"
   xmlns:xlink="http://www.w3.org/1999/xlink"
   xmlns="http://www.w3.org/2000/svg"
   xmlns:svg="http://www.w3.org/2000/svg"><defs
   id="defs7"><linearGradient
     id="swatch16"><stop
       style="stop-color:#ffffff;stop-opacity:1;"
       offset="0"
       id="stop16" /></linearGradient><linearGradient
     id="swatch15"><stop
       style="stop-color:#0060c7;stop-opacity:1;"
       offset="0"
       id="stop15" /></linearGradient><linearGradient
     id="swatch14"><stop
       style="stop-color:#b4ce00;stop-opacity:1;"
       offset="0"
       id="stop14" /></linearGradient><linearGradient
     id="swatch13"><stop
       style="stop-color:#004697;stop-opacity:1;"
       offset="0"
       id="stop13" /></linearGradient><linearGradient
     id="swatch12"><stop
       style="stop-color:#00c1d6;stop-opacity:1;"
       offset="0"
       id="stop12" /></linearGradient><linearGradient
     id="swatch11"><stop
       style="stop-color:#0382e2;stop-opacity:1;"
       offset="0"
       id="stop11" /></linearGradient><style
     id="style1">
      .cls-1 {
        fill: #0382e2;
      }

      .cls-1, .cls-2, .cls-3, .cls-4, .cls-5, .cls-6 {
        stroke-width: 0px;
      }

      .cls-2 {
        fill: #00c1d6;
      }

      .cls-3 {
        fill: #b4ce00;
      }

      .cls-4 {
        fill: #fff;
      }

      .cls-5 {
        fill: #0060c7;
      }

      .cls-6 {
        fill: #004697;
      }
    </style><style
     id="style1-9">
      .cls-1 {
        fill: #0382e2;
      }

      .cls-1, .cls-2, .cls-3, .cls-4, .cls-5, .cls-6 {
        stroke-width: 0px;
      }

      .cls-2 {
        fill: #00c1d6;
      }

      .cls-3 {
        fill: #b4ce00;
      }

      .cls-4 {
        fill: #fff;
      }

      .cls-5 {
        fill: #0060c7;
      }

      .cls-6 {
        fill: #004697;
      }
    </style><style
     id="style1-7">
      .cls-1 {
        fill: #fff;
      }

      .cls-1, .cls-2 {
        stroke-width: 0px;
      }

      .cls-2 {
        fill: #004697;
      }
    </style><clipPath
     clipPathUnits="userSpaceOnUse"
     id="clipPath92"><circle
       cx="512"
       cy="512"
       style="clip-rule:evenodd;display:inline;fill:url(#swatch16);fill-rule:evenodd;stroke:none;stroke-linejoin:round;stroke-miterlimit:2"
       id="circle92"
       clip-path="none"
       r="450" /></clipPath><clipPath
     clipPathUnits="userSpaceOnUse"
     id="clipPath91"><circle
       cx="512"
       cy="512"
       style="clip-rule:evenodd;display:inline;fill:url(#swatch16);fill-rule:evenodd;stroke:none;stroke-linejoin:round;stroke-miterlimit:2"
       id="circle91"
       clip-path="none"
       r="450" /></clipPath><clipPath
     clipPathUnits="userSpaceOnUse"
     id="clipPath90"><circle
       cx="512"
       cy="512"
       style="clip-rule:evenodd;display:inline;fill:url(#swatch16);fill-rule:evenodd;stroke:none;stroke-linejoin:round;stroke-miterlimit:2"
       id="circle90"
       clip-path="none"
       r="450" /></clipPath><clipPath
     clipPathUnits="userSpaceOnUse"
     id="clipPath89"><circle
       cx="512"
       cy="512"
       style="clip-rule:evenodd;display:inline;fill:url(#swatch16);fill-rule:evenodd;stroke:none;stroke-linejoin:round;stroke-miterlimit:2"
       id="circle89"
       clip-path="none"
       r="450" /></clipPath><clipPath
     clipPathUnits="userSpaceOnUse"
     id="clipPath88"><circle
       cx="512"
       cy="512"
       style="clip-rule:evenodd;display:inline;fill:url(#swatch16);fill-rule:evenodd;stroke:none;stroke-linejoin:round;stroke-miterlimit:2"
       id="circle88"
       clip-path="none"
       r="450" /></clipPath><linearGradient
     xlink:href="#swatch13"
     id="linearGradient20"
     gradientUnits="userSpaceOnUse"
     x1="132"
     y1="512"
     x2="892"
     y2="512" /><clipPath
     clipPathUnits="userSpaceOnUse"
     id="clipPath87"><circle
       cx="512"
       cy="512"
       style="clip-rule:evenodd;display:inline;fill:url(#swatch16);fill-rule:evenodd;stroke:none;stroke-linejoin:round;stroke-miterlimit:2"
       id="circle87"
       clip-path="none"
       r="450" /></clipPath></defs>
    
    <g
   id="g7"
   clip-path="none"
   style="clip-rule:evenodd;fill-rule:evenodd;stroke-linejoin:round;stroke-miterlimit:2"><ellipse
     style="clip-rule:evenodd;fill:url(#swatch11);fill-rule:evenodd;stroke-width:11.3386;stroke-linecap:round;stroke-linejoin:round;stroke-miterlimit:2"
     id="ellipse3"
     cx="642.73987"
     cy="547.76453"
     rx="726.67151"
     ry="636.11365"
     clip-path="url(#clipPath92)" /><ellipse
     style="clip-rule:evenodd;fill:url(#swatch12);fill-rule:evenodd;stroke-width:17.6384;stroke-linecap:round;stroke-linejoin:round;stroke-miterlimit:2"
     id="ellipse4"
     cx="1709.9685"
     cy="818.11798"
     rx="1220.5096"
     ry="449.45505"
     clip-path="url(#clipPath91)" /><ellipse
     style="clip-rule:evenodd;fill:url(#swatch14);fill-rule:evenodd;stroke-width:14.1512;stroke-linecap:round;stroke-linejoin:round;stroke-miterlimit:2"
     id="ellipse5"
     cx="81.016731"
     cy="997.836"
     rx="598.13824"
     ry="328.4375"
     clip-path="url(#clipPath90)" /><ellipse
     style="display:inline;fill:url(#swatch15);stroke-width:10.961;stroke-linecap:round;stroke-linejoin:round"
     id="ellipse6"
     cx="-280.50845"
     cy="-132.46214"
     rx="1044.7284"
     ry="755.44653"
     clip-path="url(#clipPath89)" /><ellipse
     style="fill:url(#swatch13);stroke-width:11.3386;stroke-linecap:round;stroke-linejoin:round"
     id="ellipse7"
     cx="-552.18201"
     cy="-267.2561"
     rx="1069.0244"
     ry="912.20465"
     clip-path="url(#clipPath88)" /><circle
     style="clip-rule:evenodd;display:inline;fill:url(#linearGradient20);fill-opacity:1;fill-rule:evenodd;stroke:none;stroke-width:1.43092;stroke-linejoin:round;stroke-miterlimit:2"
     id="circle7"
     cx="512"
     cy="512"
     r="380"
     clip-path="url(#clipPath87)"><desc
       id="desc7">This is the background behind the text</desc></circle></g>
<g
   id="layer1"><path
     d="M 564.65526,456.71198 V 411.955 q 21.7203,-9.21467 44.42788,-13.822 22.70758,-4.60734 47.71883,-4.60734 17.11296,0 33.56773,2.63276 16.45477,2.63277 32.25135,6.58191 v 42.12421 q -15.79658,-5.92372 -31.92226,-8.88557 -16.12567,-2.96186 -33.89682,-2.96186 -25.01125,0 -48.04793,6.25281 -23.03667,6.25281 -44.09878,17.44206 z m 0,144.80197 v -44.75698 q 21.7203,-9.21467 44.42788,-13.822 22.70758,-4.60734 47.71883,-4.60734 17.11296,0 33.56773,2.63276 16.45477,2.63277 32.25135,6.58191 v 42.12421 q -15.79658,-5.92372 -31.92226,-8.88557 -16.12567,-2.96186 -33.89682,-2.96186 -25.01125,0 -48.04793,5.92371 -23.03667,5.92372 -44.09878,17.77116 z m 0,-72.40099 v -44.75697 q 21.7203,-9.21467 44.42788,-13.82201 22.70758,-4.60733 47.71883,-4.60733 17.11296,0 33.56773,2.63276 16.45477,2.63276 32.25135,6.58191 v 42.12421 q -15.79658,-5.92372 -31.92226,-8.88558 -16.12567,-2.96186 -33.89682,-2.96186 -25.01125,0 -48.04793,6.25282 -23.03667,6.25281 -44.09878,17.44205 z m -26.32763,115.84158 q 28.96039,-13.82201 58.24988,-20.73301 29.28949,-6.91101 60.22446,-6.91101 23.69487,0 46.40245,3.94915 22.70758,3.94914 45.74426,11.84743 V 372.46356 q -21.7203,-9.21467 -45.08607,-13.82201 -23.36577,-4.60733 -47.06064,-4.60733 -30.93497,0 -61.21174,7.89828 -30.27678,7.89829 -57.2626,23.69487 z M 512,722.62105 q -31.59316,-25.01125 -68.45184,-38.83326 -36.85868,-13.822 -76.35013,-13.822 -27.64401,0 -54.30074,7.24009 -26.65672,7.2401 -51.00978,20.40392 -13.82201,7.2401 -26.65673,-0.65819 -12.83472,-7.89829 -12.83472,-23.03668 V 356.66698 q 0,-7.2401 3.62005,-13.82201 3.62005,-6.58191 10.86015,-9.87286 30.93496,-15.13839 63.51541,-23.36577 32.58044,-8.22739 66.80636,-8.22739 38.17507,0 74.70465,9.87287 36.52959,9.87286 70.09732,29.61858 33.56773,-19.74572 70.09732,-29.61858 36.52958,-9.87287 74.70465,-9.87287 34.22592,0 66.80636,8.22739 32.58045,8.22738 63.51541,23.36577 7.2401,3.29095 10.86015,9.87286 3.62005,6.58191 3.62005,13.82201 v 317.24795 q 0,15.13839 -12.83472,23.03668 -12.83472,7.89829 -26.65673,0.65819 -24.35306,-13.16382 -51.00978,-20.40392 -26.65673,-7.24009 -54.30074,-7.24009 -39.49145,0 -76.35013,13.822 Q 543.59316,697.6098 512,722.62105 Z"
     id="path1"
     style="clip-rule:evenodd;fill:#ffffff;fill-rule:evenodd;stroke-width:0.658191;stroke-linejoin:round;stroke-miterlimit:2" /></g></svg>
