<?xml version="1.0" encoding="utf-8"?>
<!-- Generator: Adobe Illustrator 27.6.1, SVG Export Plug-In . SVG Version: 6.00 Build 0)  -->
<svg version="1.1" id="a" xmlns="http://www.w3.org/2000/svg" xmlns:xlink="http://www.w3.org/1999/xlink" x="0px" y="0px"
	 viewBox="0 0 60 60" style="enable-background:new 0 0 60 60;" xml:space="preserve">
<style type="text/css">
	.st0{fill:#0060C7;}
	.st1{fill:#0382E2;}
	.st2{fill:#00C1D6;}
	.st3{fill:#004697;}
	.st4{fill:#B4CE00;}
	.st5{fill:#FFFFFF;}
</style>
<g>
	<path class="st0" d="M40.1,1.9c-0.3-0.1-0.5-0.2-0.8-0.3c0,0,0,0,0,0c-0.6-0.2-1.2-0.4-1.7-0.6c0,0,0,0,0,0c0,0,0,0,0,0
		c-0.6-0.2-1.2-0.3-1.8-0.5c0,0,0,0,0,0c-0.6-0.1-1.2-0.3-1.9-0.4C33.2,0,32.6-0.1,32-0.1c0,0,0,0,0,0c-1.9-0.1-3.8-0.1-5.6,0.2
		c-1.7,2.4-3.4,5-5.1,8.1c-2.6,4.8-4.6,9.8-8,14.2c-2.2,2.9-5.1,5-8.1,6.9c0.5,2.2,1.3,4.3,2.3,6.2h0c0.2,0.4,0.5,0.9,0.7,1.3
		c0,0,0,0,0,0c0.1,0.2,0.3,0.5,0.4,0.7c9.4-5.8,19.6-9.3,25.7-17.2c0,0,0,0,0,0c1.6-2,2.9-4.3,3.8-6.7c1.4-3.6,2.2-7.5,2.7-11.4
		C40.6,2.1,40.4,2,40.1,1.9C40.1,1.9,40.1,1.9,40.1,1.9z"/>
	<path class="st1" d="M54.1,17.1C54.1,17.1,54.1,17.1,54.1,17.1c-0.3-0.9-0.7-1.8-1.1-2.7c0,0,0-0.1,0-0.1c0,0,0,0,0,0l0,0
		c-1.4-3-3.4-5.7-5.9-7.9c0,0,0,0,0,0c-0.4-0.4-0.9-0.8-1.4-1.2c0,0,0,0,0,0c-0.5-0.4-1-0.7-1.5-1.1c0,0,0,0,0,0c0,0,0,0,0,0
		c0,0,0,0,0,0c0,0,0,0,0,0c-0.5-0.3-1-0.7-1.5-1c0,0,0,0,0,0c-0.6-0.3-1.1-0.6-1.7-0.9c-0.6,4.5-2,9-4,13.1c-3.2,6.8-8.9,11-15,14.6
		c-4.3,2.5-9,4.7-13.3,7.5c0.3,0.5,0.6,0.9,0.9,1.4c7.1,4.1,13.3,7,17.9,10.7C31.2,34,40.3,30,54,24.5c0.5-0.2,1-0.5,1.4-0.7
		C55.2,21.5,54.8,19.2,54.1,17.1C54.1,17.1,54.1,17.1,54.1,17.1z"/>
	<g>
		<path class="st2" d="M28.2,45.3c-0.5,1.5-0.8,2.9-0.8,4.3c2.6,2.1,4.6,4.3,5.9,7.2c5.2-5.1,9.6-9.9,14.3-15.2c0,0,0,0,0,0
			c4.4-4.9,8.3-10.8,7.7-17.8c-3.4,1.5-7,2.9-10.3,4.5C37.6,31.8,31.1,36.3,28.2,45.3z"/>
		<path class="st3" d="M13.2,22.4c3.4-4.4,5.4-9.4,8-14.2c1.7-3.1,3.4-5.7,5.1-8.1C13.6,1.9,4.1,13.3,4.7,26.2c0,0,0,0,0,0
			c0.1,1,0.2,2,0.4,3C8.1,27.4,11,25.2,13.2,22.4L13.2,22.4L13.2,22.4z"/>
		<path class="st4" d="M27.4,49.5C22.9,45.9,16.7,43,9.6,38.9c2,2.7,4.3,5.2,6.7,7.7c1.6,1.7,3.4,3.4,5,5h0c3.5,3.5,6.9,6.7,8.8,8.5
			c1.1-1.1,2.3-2.2,3.4-3.4C32,53.8,30,51.6,27.4,49.5z"/>
	</g>
</g>
<path class="st5" d="M25.4,20.5l-7.1,19.4l0.2,2l1.8-0.8l6.8-18.7c1.2,0.9,2.6,1.4,4.1,1.4c0.7,0,1.3-0.1,2-0.3l6.4,17.6l1.7,0.8
	l0.2-2.2l-6.3-17.2c2.7-2.1,3.4-6.2,1.5-9.1l-0.5-0.8l-2.2,1.5l0,0l0,0l0.4,0.6c1,1.5,0.9,3.4-0.3,4.7l-1.8-5c0.1-0.3,0.2-0.7,0.2-1
	c0-0.8-0.4-1.6-1-2V7.9h-2.9v3.5c-0.7,0.5-1.1,1.2-1.1,2.1c0,0.3,0,0.5,0.1,0.8l-2,5.5L25.4,20.5C25.4,20.5,25.4,20.5,25.4,20.5z
	 M29.5,16.5c0.2,0,0.4,0.1,0.6,0.1c0.2,0,0.3,0,0.4,0l1.7,4.6c-0.6,0.1-1.2,0.2-1.7,0.1c-0.9-0.2-1.7-0.6-2.2-1.3
	C28.2,19.8,29.5,16.5,29.5,16.5z"/>
<path class="st4" d="M30.1,15.6c-1.1,0-1.9-0.9-1.9-1.9c0-1.1,0.9-1.9,1.9-1.9s1.9,0.9,1.9,1.9C32.1,14.7,31.2,15.6,30.1,15.6z"/>
</svg>
