<?xml version="1.0" encoding="UTF-8"?>
<svg id="Layer_1" data-name="Layer 1" xmlns="http://www.w3.org/2000/svg" xmlns:xlink="http://www.w3.org/1999/xlink" viewBox="0 0 344.7017605515 60.2409440974">
  <defs>
    <style>
      .cls-1 {
        filter: url(#drop-shadow-2);
      }

      .cls-2 {
        filter: url(#drop-shadow-1);
      }

      .cls-2, .cls-3, .cls-4, .cls-5, .cls-6, .cls-7, .cls-8, .cls-9 {
        stroke-width: 0px;
      }

      .cls-2, .cls-5 {
        fill: #fff;
      }

      .cls-3 {
        fill: #231f20;
      }

      .cls-4 {
        fill: #b4ce00;
      }

      .cls-6 {
        fill: #00c1d6;
      }

      .cls-7 {
        fill: #004697;
      }

      .cls-8 {
        fill: #0382e2;
      }

      .cls-9 {
        fill: #0060c7;
      }
    </style>
    <filter id="drop-shadow-1" filterUnits="userSpaceOnUse">
      <feOffset dx=".9396981693" dy=".9396981693"/>
      <feGaussianBlur result="blur" stdDeviation=".4698490847"/>
      <feFlood flood-color="#002672" flood-opacity=".3"/>
      <feComposite in2="blur" operator="in"/>
      <feComposite in="SourceGraphic"/>
    </filter>
    <filter id="drop-shadow-2" filterUnits="userSpaceOnUse">
      <feOffset dx=".9396981693" dy=".9396981693"/>
      <feGaussianBlur result="blur-2" stdDeviation=".4698490847"/>
      <feFlood flood-color="#002672" flood-opacity=".3"/>
      <feComposite in2="blur-2" operator="in"/>
      <feComposite in="SourceGraphic"/>
    </filter>
  </defs>
  <path class="cls-7" d="m9.2222383946,23.3764473347c3.4109096527-4.3854789734,5.5939097337-9.2714788063,8.2366204194-14.0952083213,1.6863594055-3.0782399178,2.5425732316-6.6312530343,4.2396328629-9.0117934053C8.9002014242,2.1168064574-.5554184474,13.4876167277.025371534,26.4099561671c0,.0018692017.0001500007.0037708282.00031.0056400299.051049998,1.0218200684.1851300057,2.0390892029.3953100201,3.0398406982,3.0229799449-1.9069499969,6.5611869879-3.1988206458,8.8012468405-6.0789895606h0Z"/>
  <g>
    <g>
      <path class="cls-3" d="m326.91225465,37.1298369707v-13.1582363496h2.1531270092v2.5119490617h.4546117702l-.4546117702.5025066291c0-1.0367484695.3111218881-1.8381112301.9329762753-2.4042829765.6220490817-.5661717463,1.4833777632-.8494523141,2.5839860445-.8494523141,1.3235335391,0,2.3762469615.4067169113,3.1579455728,1.2201507339.7811145276.8134338226,1.1722558751,1.9220245804,1.1722558751,3.3253828843v8.8519823312h-2.1531270092v-8.6127027314c0-.9409587517-.2513506618-1.6626914421-.7536625963-2.1651980712-.5025066291-.5023119345-1.1843269371-.7534679018-2.045460924-.7534679018-.893453282,0-1.5992210194.2714042003-2.1173032123.8134338226-.518471582.5424190114-.7776100258,1.3239229282-.7776100258,2.3445117502v8.3734231316h-2.1531270092Z"/>
      <path class="cls-3" d="m336.9125454268,26.255289593l.127006928.6563053341-.4729166326.1344566897c0-1.0367484695.5990829497-1.8981065351,1.2209373368-2.4642782815.6220490817-.5661717463,1.4833777632-.8494523141,2.5839860445-.8494523141,1.3235335391,0,2.3762469615.4067169113,3.1579455728,1.2201507339.7811145276.8134338226,1.1722558751,1.9220245804,1.1722558751,3.3253828843v8.8519823312h-2.1531270092v-8.6127027314c0-.9409587517-.2513506618-1.6626914421-.7536625963-2.1651980712-.5025066291-.5023119345-1.1843269371-.7534679018-2.045460924-.7534679018-.893453282,0-1.5992210194.2714042003-2.1173032123.8134338226-.518471582.5424190114-.7776100258,1.3239229282-.7776100258,2.3445117502v8.3734231316h-2.1531270092"/>
    </g>
    <g>
      <path class="cls-3" d="m70.9250102303,37.1298369707v-17.4995117188h5.4174804688c1.0385742188,0,1.9497070312.2119140625,2.7329101562.6352539062.7827148438.423828125,1.3901367188,1.0112304688,1.8217773438,1.7622070312s.6469726562,1.6298828125.6469726562,2.63671875c0,1.1831054688-.3076171875,2.1977539062-.9228515625,3.0444335938-.615234375.8471679688-1.4501953125,1.4306640625-2.5048828125,1.75l3.6674804688,7.6708984375h-2.541015625l-3.3559570312-7.4311523438h-2.8046875v7.4311523438h-2.1572265625Zm2.1572265625-9.373046875h3.2602539062c.8950195312,0,1.6137695312-.2836914062,2.1572265625-.8510742188.5434570312-.5668945312.8154296875-1.3139648438.8154296875-2.2412109375,0-.9428710938-.2719726562-1.6938476562-.8154296875-2.2534179688-.5434570312-.5590820312-1.2622070312-.8388671875-2.1572265625-.8388671875h-3.2602539062v6.1845703125Z"/>
      <path class="cls-3" d="m83.4616313241,37.1298369707v-1.9658203125h4.6743164062v-9.2529296875h-4.0751953125v-1.9658203125h6.2329101562v11.21875h4.4345703125v1.9658203125h-11.2666015625Zm5.513671875-15.5576171875c-.52734375,0-.943359375-.1357421875-1.2465820312-.4077148438-.3037109375-.271484375-.4555664062-.638671875-.4555664062-1.1025390625,0-.4794921875.1518554688-.8588867188.4555664062-1.138671875.3032226562-.279296875.7192382812-.4194335938,1.2465820312-.4194335938s.9423828125.1401367188,1.2465820312.4194335938c.3032226562.2797851562.455078125.6591796875.455078125,1.138671875,0,.4638671875-.1518554688.8310546875-.455078125,1.1025390625-.3041992188.2719726562-.7192382812.4077148438-1.2465820312.4077148438Z"/>
      <path class="cls-3" d="m99.3791117928,37.1298369707l-4.4111328125-13.1845703125h2.2055664062l2.9243164062,8.8696289062c.17578125.52734375.3359375,1.03515625.4794921875,1.5224609375.1440429688.4873046875.2475585938.8666992188.3115234375,1.1381835938.080078125-.271484375.1918945312-.6508789062.3359375-1.1381835938.1435546875-.4873046875.2954101562-.9951171875.4555664062-1.5224609375l2.8525390625-8.8696289062h2.1811523438l-4.4106445312,13.1845703125h-2.9243164062Z"/>
      <path class="cls-3" d="m113.5461039803,37.3695830645c-1.0390625,0-1.9458007812-.2080078125-2.720703125-.6235351562-.775390625-.4150390625-1.3745117188-1.0024414062-1.7978515625-1.76171875-.423828125-.7587890625-.6352539062-1.6420898438-.6352539062-2.6489257812v-3.595703125c0-1.0224609375.2114257812-1.9096679688.6352539062-2.6606445312.4233398438-.7509765625,1.0224609375-1.3344726562,1.7978515625-1.75.7749023438-.4155273438,1.681640625-.6235351562,2.720703125-.6235351562s1.9453125.2080078125,2.720703125.6235351562,1.3740234375.9990234375,1.7978515625,1.75.6357421875,1.6381835938.6357421875,2.6606445312v2.3251953125h-8.1987304688v1.2705078125c0,1.0390625.263671875,1.833984375.791015625,2.3852539062s1.2788055765.8271484375,2.2534179688.8271484375c.8310546875,0,1.501953125-.1474609375,2.013671875-.443359375.5117156443-.2958984375.8232421875-.7392578125.9345703125-1.3305664062h2.158203125c-.14453125,1.1025390625-.68359375,1.9775390625-1.6181640625,2.625-.935546875.6469726562-2.09765625.970703125-3.48828125.970703125Zm3.044921875-7.7426757812v-.8872070312c0-1.0385742188-.2607421875-1.8374023438-.779296875-2.3969726562-.51953125-.5595703125-1.2744140625-.8393554688-2.265625-.8393554688-.9746123922,0-1.7260742188.2797851562-2.2534179688.8393554688s-.791015625,1.3583984375-.791015625,2.3969726562v.6953125h6.2563476562l-.1669921875.1918945312Z"/>
      <path class="cls-3" d="m121.7199321053,37.1298369707v-13.1845703125h2.109375v2.5170898438h.5029296875l-.6953125,1.5581054688c0-1.421875.3076171875-2.4965820312.923828125-3.2241210938.6142578125-.7270507812,1.529296875-1.0908203125,2.744140625-1.0908203125,1.390625,0,2.4970703125.435546875,3.3203125,1.306640625s1.234375,2.0493164062,1.234375,3.5356445312v.791015625h-2.1572265625v-.5991210938c0-1.0385742188-.251953125-1.833984375-.7548828125-2.3852539062-.50390625-.5512695312-1.21875-.8271484375-2.1455078125-.8271484375-.9111328125,0-1.626953125.2797851562-2.1455078125.8393554688-.51953125.5595703125-.779296875,1.3505859375-.779296875,2.373046875v8.3901367188h-2.1572265625Z"/>
      <path class="cls-3" d="m138.0685649178,37.321731502c-.8955078125,0-1.6748046875-.1401367188-2.337890625-.4194335938-.6630859375-.2797851562-1.1904296875-.6752929688-1.58203125-1.1870117188-.3916015625-.5112304688-.626953125-1.1181640625-.70703125-1.8217773438h2.1572265625c.0966796875.4638671875.35546875.8310546875.779296875,1.1030273438s.9873046875.4072265625,1.6904296875.4072265625h1.0068359375c.8466796875,0,1.4775390625-.1713867188,1.8935546875-.5151367188.4150390625-.34375.623046875-.8032226562.623046875-1.3784179688,0-.5595703125-.1875-1.0029296875-.5634765625-1.3305664062-.375-.3271484375-.9306640625-.5473632812-1.666015625-.6591796875l-1.7734375-.2875976562c-1.294921875-.2236328125-2.2578125-.626953125-2.888671875-1.2104492188-.6318359375-.5834960938-.947265625-1.4345703125-.947265625-2.5532226562,0-1.1826171875.3759765625-2.09765625,1.126953125-2.7446289062.7509765625-.6474609375,1.8779296875-.9711914062,3.3798828125-.9711914062h.9111328125c1.2626953125,0,2.27734375.2958984375,3.0439453125.8872070312.767578125.5913085938,1.23046875,1.3901367188,1.390625,2.3969726562h-2.1572265625c-.095703125-.4150390625-.3359375-.7465820312-.71875-.9946289062-.3837890625-.2475585938-.9033203125-.3715820312-1.55859375-.3715820312h-.9111328125c-.814453125,0-1.41015625.1518554688-1.7861328125.4555664062-.375.3037109375-.5625.7592773438-.5625,1.3662109375,0,.5434570312.1591796875.943359375.4794921875,1.1987304688.3193359375.255859375.822265625.439453125,1.509765625.5512695312l1.7734375.2875976562c1.4228515625.2241210938,2.4580078125.6396484375,3.1044921875,1.2465820312.6474609375.607421875.970703125,1.486328125.970703125,2.63671875,0,1.21484375-.38671875,2.1694335938-1.162109375,2.8647460938s-1.9462890625,1.04296875-3.51171875,1.04296875h-1.0068359375Z"/>
      <path class="cls-3" d="m150.7970805428,37.3695830645c-1.0546875,0-1.9775390625-.2001953125-2.7685546875-.5991210938-.791015625-.3994140625-1.40234375-.9790039062-1.833984375-1.73828125-.431640625-.7587890625-.646484375-1.6577148438-.646484375-2.6967773438v-3.595703125c0-1.0546875.21484375-1.9575195312.646484375-2.708984375.431640625-.7509765625,1.04296875-1.326171875,1.833984375-1.7255859375s1.7138671875-.599609375,2.7685546875-.599609375c1.5185546875,0,2.7412109375.4077148438,3.66796875,1.22265625s1.4140625,1.92578125,1.4619140625,3.33203125h-2.1572265625c-.0478515625-.8466796875-.33203125-1.498046875-.8505859375-1.9536132812-.51953125-.4555664062-1.2265625-.6831054688-2.1220703125-.6831054688-.9423828125,0-1.693359375.267578125-2.2529296875.802734375-.5595703125.5356445312-.8388671875,1.298828125-.8388671875,2.2895507812v3.6196289062c0,.9912109375.279296875,1.7583007812.8388671875,2.3012695312.5595703125.5434570312,1.310546875.8149414062,2.2529296875.8149414062.8955078125,0,1.6025390625-.2314453125,2.1220703125-.6948242188.5185546875-.4633789062.802734375-1.1108398438.8505859375-1.9418945312h2.1572265625c-.0478515625,1.40625-.53515625,2.5170898438-1.4619140625,3.33203125s-2.1494140625,1.22265625-3.66796875,1.22265625Z"/>
      <path class="cls-3" d="m162.2560649178,37.3695830645c-1.390625,0-2.4853515625-.35546875-3.2841796875-1.0668945312-.7998046875-.7109375-1.1982421875-1.673828125-1.1982421875-2.888671875,0-1.23046875.3984375-2.1967773438,1.1982421875-2.900390625.798828125-.703125,1.8779296875-1.0546875,3.236328125-1.0546875h4.0751953125v-1.318359375c0-.8154296875-.244140625-1.4423828125-.7314453125-1.8818359375s-1.1787109375-.6591796875-2.0732421875-.6591796875c-.783203125,0-1.4384765625.1640625-1.9658203125.4912109375-.52734375.3276367188-.8310546875.771484375-.9111328125,1.3305664062h-2.1572265625c.1435546875-1.134765625.6787109375-2.0375976562,1.6064453125-2.708984375.92578125-.6708984375,2.0849609375-1.0068359375,3.4755859375-1.0068359375,1.517578125,0,2.716796875.3920898438,3.595703125,1.1748046875.87890625.783203125,1.318359375,1.845703125,1.318359375,3.1879882812v9.0615234375h-2.109375v-2.5170898438h-.359375l.359375-.359375c0,.9584960938-.3720703125,1.7177734375-1.115234375,2.27734375s-1.7294921875.8388671875-2.9599609375.8388671875Zm.52734375-1.7021484375c1.0224609375,0,1.861328125-.2553710938,2.5166015625-.7670898438.6552734375-.5112304688.9833984375-1.1665039062.9833984375-1.9653320312v-1.8701171875h-4.02734375c-.7197265625,0-1.287109375.2001953125-1.7021484375.599609375-.416015625.3994140625-.623046875.9428710938-.623046875,1.6298828125,0,.7353515625.251953125,1.314453125.7548828125,1.7377929688.50390625.423828125,1.2021484375.6352539062,2.09765625.6352539062Z"/>
      <path class="cls-3" d="m171.1252055428,41.444778377v-17.4995117188h2.158203125v2.5170898438h.4306640625l-.4306640625.5034179688c0-1.0068359375.3310546875-1.8017578125.994140625-2.3852539062.6630859375-.5830078125,1.5380859375-.875,2.625-.875,1.326171875,0,2.3857421875.435546875,3.1767578125,1.306640625s1.1865234375,2.0654296875,1.1865234375,3.5834960938v3.8598632812c0,1.0068359375-.1796875,1.8779296875-.5400390625,2.6127929688-.359375.7353515625-.8623046875,1.302734375-1.509765625,1.7021484375-.6474609375.3989257812-1.4189453125.5991210938-2.3134765625.5991210938-1.0703125,0-1.94140625-.2954101562-2.6123046875-.8872070312-.671875-.5908203125-1.0068359375-1.3818359375-1.0068359375-2.373046875l.4306640625.5034179688h-.4794921875l.048828125,2.9965820312v3.8354492188h-2.158203125Zm5.05859375-5.9448242188c.9111328125,0,1.6259765625-.2719726562,2.1455078125-.8154296875.5185546875-.54296875.779296875-1.326171875.779296875-2.3491210938v-3.595703125c0-1.0224609375-.2607421875-1.8056640625-.779296875-2.3491210938-.51953125-.54296875-1.234375-.8149414062-2.1455078125-.8149414062-.87890625,0-1.58203125.2797851562-2.109375.8388671875-.52734375.5595703125-.791015625,1.3344726562-.791015625,2.3251953125v3.595703125c0,.9912109375.263671875,1.7661132812.791015625,2.3251953125.52734375.5595703125,1.23046875.8393554688,2.109375.8393554688Z"/>
      <path class="cls-3" d="m188.8156352303,37.3695830645c-1.0390625,0-1.9453125-.2080078125-2.720703125-.6235351562-.775390625-.4150390625-1.375-1.0024414062-1.7978515625-1.76171875-.423828125-.7587890625-.634765625-1.6420898438-.634765625-2.6489257812v-3.595703125c0-1.0224609375.2109375-1.9096679688.634765625-2.6606445312.4228515625-.7509765625,1.0224609375-1.3344726562,1.7978515625-1.75s1.681640625-.6235351562,2.720703125-.6235351562,1.9453125.2080078125,2.720703125.6235351562,1.3740234375.9990234375,1.7978515625,1.75.6357421875,1.6381835938.6357421875,2.6606445312v2.3251953125h-8.1982421875v1.2705078125c0,1.0390625.263671875,1.833984375.791015625,2.3852539062s1.2783203125.8271484375,2.2529296875.8271484375c.8310546875,0,1.501953125-.1474609375,2.013671875-.443359375s.8232421875-.7392578125.9345703125-1.3305664062h2.158203125c-.14453125,1.1025390625-.68359375,1.9775390625-1.6181640625,2.625-.935546875.6469726562-2.09765625.970703125-3.48828125.970703125Zm3.044921875-7.7426757812v-.8872070312c0-1.0385742188-.2607421875-1.8374023438-.779296875-2.3969726562-.51953125-.5595703125-1.2744140625-.8393554688-2.265625-.8393554688-.974609375,0-1.7255859375.2797851562-2.2529296875.8393554688s-.791015625,1.3583984375-.791015625,2.3969726562v.6953125h6.255859375l-.1669921875.1918945312Z"/>
      <path class="cls-3" d="m200.1545024178,37.321731502c-.8955078125,0-1.6748046875-.1401367188-2.337890625-.4194335938-.6630859375-.2797851562-1.1904296875-.6752929688-1.58203125-1.1870117188-.3916015625-.5112304688-.626953125-1.1181640625-.70703125-1.8217773438h2.1572265625c.0966796875.4638671875.35546875.8310546875.779296875,1.1030273438s.9873046875.4072265625,1.6904296875.4072265625h1.0068359375c.8466796875,0,1.4775390625-.1713867188,1.8935546875-.5151367188.4150390625-.34375.623046875-.8032226562.623046875-1.3784179688,0-.5595703125-.1875-1.0029296875-.5634765625-1.3305664062-.375-.3271484375-.9306640625-.5473632812-1.666015625-.6591796875l-1.7734375-.2875976562c-1.294921875-.2236328125-2.2578125-.626953125-2.888671875-1.2104492188-.6318359375-.5834960938-.947265625-1.4345703125-.947265625-2.5532226562,0-1.1826171875.3759765625-2.09765625,1.126953125-2.7446289062.7509765625-.6474609375,1.8779296875-.9711914062,3.3798828125-.9711914062h.9111328125c1.2626953125,0,2.27734375.2958984375,3.0439453125.8872070312.767578125.5913085938,1.23046875,1.3901367188,1.390625,2.3969726562h-2.1572265625c-.095703125-.4150390625-.3359375-.7465820312-.71875-.9946289062-.3837890625-.2475585938-.9033203125-.3715820312-1.55859375-.3715820312h-.9111328125c-.814453125,0-1.41015625.1518554688-1.7861328125.4555664062-.375.3037109375-.5625.7592773438-.5625,1.3662109375,0,.5434570312.1591796875.943359375.4794921875,1.1987304688.3193359375.255859375.822265625.439453125,1.509765625.5512695312l1.7734375.2875976562c1.4228515625.2241210938,2.4580078125.6396484375,3.1044921875,1.2465820312.6474609375.607421875.970703125,1.486328125.970703125,2.63671875,0,1.21484375-.38671875,2.1694335938-1.162109375,2.8647460938s-1.9462890625,1.04296875-3.51171875,1.04296875h-1.0068359375Z"/>
    </g>
    <g>
      <path class="cls-3" d="m221.2004008553,37.3695830645c-1.0556640625,0-1.970703125-.2001953125-2.7451171875-.5991210938-.775390625-.3994140625-1.375-.9790039062-1.7978515625-1.73828125-.423828125-.7587890625-.6357421875-1.6577148438-.6357421875-2.6967773438v-7.9106445312c0-1.0546875.2119140625-1.9575195312.6357421875-2.708984375.4228515625-.7509765625,1.0224609375-1.326171875,1.7978515625-1.7255859375.7744140625-.3994140625,1.689453125-.599609375,2.7451171875-.599609375,1.0546875,0,1.96484375.2041015625,2.732421875.611328125.7666015625.4077148438,1.3583984375.9868164062,1.7734375,1.73828125.416015625.7509765625.6240234375,1.6459960938.6240234375,2.6845703125h-2.158203125c0-.9907226562-.259765625-1.7534179688-.7783203125-2.2890625-.51953125-.5356445312-1.2509765625-.8032226562-2.193359375-.8032226562-.943359375,0-1.6826171875.263671875-2.2177734375.791015625-.5361385044.52734375-.802734375,1.2866210938-.802734375,2.27734375v7.9345703125c0,.9912109375.2665958706,1.75390625.802734375,2.2895507812.53515625.5356445312,1.2744140625.802734375,2.2177734375.802734375.9423828125,0,1.673828125-.2670898438,2.193359375-.802734375.5185546875-.5356445312.7783203125-1.2983398438.7783203125-2.2895507812h2.158203125c0,1.0229492188-.2080078125,1.9140625-.6240234375,2.6728515625-.4150390625.7592773438-1.0068359375,1.3422851562-1.7734375,1.75-.767578125.4077148438-1.677734375.611328125-2.732421875.611328125Z"/>
      <path class="cls-3" d="m233.3293071053,37.321731502c-1.0546875,0-1.96484375-.1997070312-2.732421875-.599609375-.7666015625-.3989257812-1.3623046875-.978515625-1.7861328125-1.7377929688-.423828125-.7587890625-.634765625-1.6577148438-.634765625-2.6967773438v-3.5c0-1.0546875.2109375-1.9575195312.634765625-2.7084960938s1.01953125-1.3266601562,1.7861328125-1.7260742188c.767578125-.3994140625,1.677734375-.599609375,2.732421875-.599609375s1.9658203125.2001953125,2.7333984375.599609375c.7666015625.3994140625,1.3623046875.9750976562,1.7861328125,1.7260742188.4228515625.7509765625.634765625,1.6459960938.634765625,2.6845703125v3.5239257812c0,1.0390625-.2119140625,1.9379882812-.634765625,2.6967773438-.423828125.7592773438-1.01953125,1.3388671875-1.7861328125,1.7377929688-.767578125.3999023438-1.6787109375.599609375-2.7333984375.599609375Zm0-1.91796875c.943359375,0,1.6787109375-.263671875,2.2060546875-.791015625s.791015625-1.3022460938.791015625-2.3251953125v-3.5c0-1.0224609375-.263671875-1.7978515625-.791015625-2.3251953125s-1.2626953125-.791015625-2.2060546875-.791015625c-.9267578125,0-1.658203125.263671875-2.193359375.791015625s-.802734375,1.302734375-.802734375,2.3251953125v3.5c0,1.0229492188.267578125,1.7978515625.802734375,2.3251953125s1.2666015625.791015625,2.193359375.791015625Z"/>
      <path class="cls-3" d="m240.5685649178,37.1298369707v-13.1845703125h2.1572265625v2.5170898438h.4560546875l-.4560546875.5034179688c0-1.0385742188.3115234375-1.841796875.935546875-2.4091796875.623046875-.5668945312,1.486328125-.8510742188,2.5888671875-.8510742188,1.326171875,0,2.380859375.4077148438,3.1640625,1.22265625s1.1748046875,1.92578125,1.1748046875,3.33203125v8.8696289062h-2.1572265625v-8.6298828125c0-.9428710938-.251953125-1.666015625-.755859375-2.1694335938-.5029296875-.5034179688-1.1865234375-.7548828125-2.048828125-.7548828125-.8955078125,0-1.6025390625.2719726562-2.1220703125.8149414062-.51953125.5434570312-.779296875,1.3266601562-.779296875,2.3491210938v8.3901367188h-2.1572265625Z"/>
      <path class="cls-3" d="m257.3732524178,37.321731502c-.8955078125,0-1.6748046875-.1401367188-2.337890625-.4194335938-.6630859375-.2797851562-1.1904296875-.6752929688-1.58203125-1.1870117188-.3916015625-.5112304688-.626953125-1.1181640625-.70703125-1.8217773438h2.1572265625c.095703125.4638671875.35546875.8310546875.779296875,1.1030273438.4228515625.2719726562.986328125.4072265625,1.6904296875.4072265625h1.0068359375c.8466796875,0,1.4775390625-.1713867188,1.8935546875-.5151367188.4150390625-.34375.623046875-.8032226562.623046875-1.3784179688,0-.5595703125-.1875-1.0029296875-.5634765625-1.3305664062-.375-.3271484375-.9306640625-.5473632812-1.666015625-.6591796875l-1.7734375-.2875976562c-1.294921875-.2236328125-2.2578125-.626953125-2.888671875-1.2104492188-.6318359375-.5834960938-.947265625-1.4345703125-.947265625-2.5532226562,0-1.1826171875.375-2.09765625,1.126953125-2.7446289062.7509765625-.6474609375,1.8779296875-.9711914062,3.3798828125-.9711914062h.9111328125c1.2626953125,0,2.27734375.2958984375,3.0439453125.8872070312.767578125.5913085938,1.23046875,1.3901367188,1.390625,2.3969726562h-2.1572265625c-.095703125-.4150390625-.3359375-.7465820312-.71875-.9946289062-.3837890625-.2475585938-.9033203125-.3715820312-1.55859375-.3715820312h-.9111328125c-.8154296875,0-1.41015625.1518554688-1.7861328125.4555664062s-.5634765625.7592773438-.5634765625,1.3662109375c0,.5434570312.16015625.943359375.4794921875,1.1987304688.3193359375.255859375.8232421875.439453125,1.5107421875.5512695312l1.7734375.2875976562c1.4228515625.2241210938,2.4580078125.6396484375,3.1044921875,1.2465820312.6474609375.607421875.970703125,1.486328125.970703125,2.63671875,0,1.21484375-.38671875,2.1694335938-1.162109375,2.8647460938s-1.9462890625,1.04296875-3.51171875,1.04296875h-1.0068359375Z"/>
      <path class="cls-3" d="m270.0060649178,37.321731502c-1.0546875,0-1.9658203125-.1997070312-2.732421875-.599609375-.767578125-.3989257812-1.36328125-.978515625-1.7861328125-1.7377929688-.423828125-.7587890625-.634765625-1.6577148438-.634765625-2.6967773438v-3.5c0-1.0546875.2109375-1.9575195312.634765625-2.7084960938.4228515625-.7509765625,1.0185546875-1.3266601562,1.7861328125-1.7260742188.7666015625-.3994140625,1.677734375-.599609375,2.732421875-.599609375s1.9658203125.2001953125,2.7333984375.599609375c.7666015625.3994140625,1.361328125.9750976562,1.78515625,1.7260742188s.6357421875,1.6459960938.6357421875,2.6845703125v3.5239257812c0,1.0390625-.2119140625,1.9379882812-.6357421875,2.6967773438-.423828125.7592773438-1.0185546875,1.3388671875-1.78515625,1.7377929688-.767578125.3999023438-1.6787109375.599609375-2.7333984375.599609375Zm0-1.91796875c.943359375,0,1.677734375-.263671875,2.205078125-.791015625.5283203125-.52734375.7919921875-1.3022460938.7919921875-2.3251953125v-3.5c0-1.0224609375-.263671875-1.7978515625-.7919921875-2.3251953125-.52734375-.52734375-1.26171875-.791015625-2.205078125-.791015625-.9267578125,0-1.658203125.263671875-2.193359375.791015625s-.802734375,1.302734375-.802734375,2.3251953125v3.5c0,1.0229492188.267578125,1.7978515625.802734375,2.3251953125s1.2666015625.791015625,2.193359375.791015625Z"/>
      <path class="cls-3" d="m277.7004008553,37.1298369707v-13.1845703125h2.109375v2.5170898438h.5029296875l-.6953125,1.5581054688c0-1.421875.3076171875-2.4965820312.923828125-3.2241210938.6142578125-.7270507812,1.529296875-1.0908203125,2.744140625-1.0908203125,1.390625,0,2.4970703125.435546875,3.3203125,1.306640625s1.234375,2.0493164062,1.234375,3.5356445312v.791015625h-2.1572265625v-.5991210938c0-1.0385742188-.251953125-1.833984375-.7548828125-2.3852539062-.50390625-.5512695312-1.21875-.8271484375-2.1455078125-.8271484375-.9111328125,0-1.626953125.2797851562-2.1455078125.8393554688-.51953125.5595703125-.779296875,1.3505859375-.779296875,2.373046875v8.3901367188h-2.1572265625Z"/>
      <path class="cls-3" d="m296.3742289803,37.1298369707c-1.134765625,0-2.017578125-.3032226562-2.6484375-.9111328125-.6318359375-.6069335938-.947265625-1.4619140625-.947265625-2.5649414062v-7.7426757812h-3.7158203125v-1.9658203125h3.7158203125v-3.7153320312h2.1572265625v3.7153320312h5.2734375v1.9658203125h-5.2734375v7.7426757812c0,1.0068359375.4794921875,1.5102539062,1.4384765625,1.5102539062h3.595703125v1.9658203125h-3.595703125Z"/>
      <path class="cls-3" d="m302.4875102303,37.1298369707v-1.9658203125h4.673828125v-9.2529296875h-4.0751953125v-1.9658203125h6.232421875v11.21875h4.435546875v1.9658203125h-11.2666015625Zm5.5126953125-15.5576171875c-.52734375,0-.9423828125-.1357421875-1.24609375-.4077148438-.3037109375-.271484375-.4560546875-.638671875-.4560546875-1.1025390625,0-.4794921875.15234375-.8588867188.4560546875-1.138671875.3037109375-.279296875.71875-.4194335938,1.24609375-.4194335938s.943359375.1401367188,1.2470703125.4194335938c.302734375.2797851562.455078125.6591796875.455078125,1.138671875,0,.4638671875-.15234375.8310546875-.455078125,1.1025390625-.3037109375.2719726562-.7197265625.4077148438-1.2470703125.4077148438Z"/>
      <path class="cls-3" d="m319.8429789803,37.3695830645c-1.5185546875,0-2.7333984375-.451171875-3.64453125-1.3544921875-.91015625-.9028320312-1.3662109375-2.1293945312-1.3662109375-3.6796875v-8.3901367188h2.1572265625v8.3901367188c0,.9912109375.255859375,1.7622070312.767578125,2.3134765625s1.2060546875.8266601562,2.0859375.8266601562c.89453125,0,1.6015625-.275390625,2.12109375-.8266601562s.779296875-1.322265625.779296875-2.3134765625v-8.3901367188h2.1572265625v8.3901367188c0,1.5502929688-.4638671875,2.7768554688-1.390625,3.6796875-.9267578125.9033203125-2.1494140625,1.3544921875-3.6669921875,1.3544921875Z"/>
    </g>
  </g>
  <g>
    <g>
      <path class="cls-9" d="m35.4077507101,2.0743064383c-.2544708252-.1056499481-.5076789856-.2135499716-.7631416321-.3173799515-.0042800903-.002120018-.0085601807-.0033400059-.012840271-.0051900148-.5754699707-.2192800045-1.153968811-.4301799536-1.7424201965-.6137999296,0-.0000300407-.0001602173-.0000699759-.0003089905-.0001100302-.0042800903-.0012199879-.0091705322-.0024499893-.012840271-.0039800406-.5928192139-.1853600144-1.195520401-.3391599655-1.7989902496-.4867399931-.0030593872-.0005900264-.0061092377-.0015500188-.010389328-.0024499893-.6166191101-.1346399784-1.2338905334-.2611599863-1.8589191437-.3558799922-.6294708252-.0968700051-1.265039444-.1613699943-1.8998794556-.2173999995-.0012207031-.0002899989-.0036697388-.0002899989-.0048904419-.0002899989-1.8676795959-.1394899935-3.7516498566-.0738599971-5.6046199799.1983600035-1.6970596313,2.3805399537-3.4439792633,4.9784098268-5.1303291321,8.0566502213-2.6427097321,4.8237295151-4.6224994659,9.8399000168-8.0334100723,14.2253789902-2.2400598526,2.8801708221-5.0907897949,4.9969997406-8.1137800217,6.9039497375.4510599971,2.1712608337,1.2692699432,4.252948761,2.3254899979,6.198890686h-.0003099442c.2376198769.4362792969.4858300686.8669204712.7452499866,1.291229248.0019900799.0030784607.0036699772.0061683655.0056600571.0092506409.1460900307.2390098572.2967998981.475769043.449559927.7115287781,9.3516702652-5.7955303192,19.5530395508-9.2704391479,25.7399196625-17.1998405457-.0001392365.0001602173-.0002708435.0003204346-.00041008.0004806519,1.5898799896-2.0199508667,2.8735313416-4.2748908997,3.8280296326-6.6611499786,1.4426002502-3.6308603287,2.1741790771-7.5098600388,2.7157897949-11.3584604263-.2714309692-.1291699409-.5459785461-.2537600994-.8222007751-.3730499744l-.0000190735.0000019073Z"/>
      <path class="cls-8" d="m49.4052597128,17.3002969722c.0023002625-.000919342.0045890808-.0018501282.006729126-.0027694702-.3155517578-.9330291748-.6857681274-1.8458499908-1.1043395996-2.7366800308-.015209198-.0307998657-.0286598206-.0625801086-.0434112549-.0935602188-.0006217957-.0006303787-.0006217957-.0009002686-.0006217957-.0009002686l-.0009117126.0001497269c-1.423248291-2.9756002426-3.4307098389-5.663069725-5.868888855-7.8835201263-.0010681152-.0008797646-.0018310547-.0018000603-.0028991699-.0026698112-.4497718811-.4097399712-.9203300476-.7965698242-1.3947982788-1.1774401665-.0005989075-.0005898476-.0012207031-.0014901161-.0018310547-.0018200874-.481880188-.3708200455-.9708900452-.7321600914-1.473991394-1.0741100311-.0003013611-.0001702309-.0005989075-.0003800392-.0009117126-.0005497932-.0018310547-.0012202263-.0042800903-.0024499893-.006111145-.0039901733-.0033607483-.0023298264-.0070304871-.0044698715-.0103988647-.0068001747.0006103516.0003399849.0012207031.000649929.0018310547.0009899139-.5012702942-.3390700817-1.0187911987-.6518900394-1.5391082764-.9603600502-.0036697388-.0014901161-.0067214966-.0033400059-.0103912354-.0051999092-.5660400391-.3180198669-1.1379585266-.6256198883-1.7252388-.9037098885-.6327590942,4.4761900902-1.9799118042,9.0162601471-3.9582710266,13.1202096939-3.2082805634,6.7880210876-8.8801403046,10.9591789246-15.021030426,14.5529003143-4.3189001083,2.5274715424-9.0121002197,4.66314888-13.3040304184,7.5458507538.3026399612.4670791626.6174001694.928150177.9436397552,1.3832511902,7.0997400284,4.1161193848,13.3366098404,7.0438995361,17.8710184097,10.6518211365,3.8105297089-15.5258712769,12.8683700562-19.4856090546,26.5299606323-25.0151996613.5251617432-.2145805359.9874305725-.4584293365,1.395160675-.7300701141-.1288299561-2.314250946-.5715789795-4.5456504822-1.2811698914-6.6558303833,0,0,.0000190735,0,.0000152588.0000076294Z"/>
      <g>
        <path class="cls-6" d="m23.5508609854,45.447136114c-.4799308777,1.4563789368-.789560318,2.8847007751-.789560318,4.2542495728,2.5833301544,2.0554885864,4.6138896942,4.3320503235,5.9366207123,7.1748695374,5.1638507843-5.1300888062,9.6284999847-9.900718689,14.3099918365-15.1517105103,0,0,0,.0000190735-.0001602173.0000190735,4.3807792664-4.9344100952,8.2560577393-10.823638916,7.6786689758-17.7684402466-3.3909797668,1.5317001343-6.9533500671,2.8819503784-10.2513198853,4.4570903778-7.5031700134,3.5836009979-14.033908844,8.1125621796-16.8842411041,17.0339221954Z"/>
        <path class="cls-4" d="m22.7613006674,49.7013971309c-4.5344104767-3.6079216003-10.7712802887-6.535697937-17.8710193634-10.6518211365,1.9544501305,2.7276306152,4.3048400879,5.2497596741,6.6649494171,7.6646995544,1.6407699585,1.676700592,3.3506202698,3.3899497986,5.0103607178,5.0306892395h-.0001506805c3.5284900665,3.4885597229,6.8767299652,6.7023696899,8.7601413727,8.4959793091,1.1118202209-1.1034698486,2.2578296661-2.2463302612,3.3723392487-3.3646812439-1.3227291107-2.8428192139-3.3533000946-5.1193809509-5.9366207123-7.1748657227Z"/>
      </g>
    </g>
    <path class="cls-2" d="m27.7423810984,46.075617119c-1.6729959589-2.6928674066-3.9106452358-6.4700100481-3.8738024469-10.1852352121.0354957049-9.3443652572,11.3803178287-18.9320666623,3.9972231019-27.0228001439-.0823704052-.0902652641-.2301252897-.0192552082-.2117470876.1015543247,1.5078645048,9.911981868-8.7791794711,17.0499223753-6.9076764593,27.0256555115.6329933936,3.251673924,3.1265555308,8.0778184841,6.9960028919,10.0808255197Z"/>
    <g class="cls-1">
      <path class="cls-5" d="m15.4102514754,33.5375800759l-8.3064202165-4.039614074c-.8074407908-.3926780848-1.3199223134-1.211782233-1.3199223134-2.1096445326v-.0000028097c0-.8209178523.4685631985-1.5698269205,1.2068084285-1.9288535221l8.4195341014-4.094624106c.5845042833-.2842586419,1.2648802748.1414260831,1.2648802748.7913862609v.5501655959c0,.3388903606-.1945986367.6476692828-.5003228758.793886129l-6.9347681039,3.3166487681c-.3318332374.1494516107-.6464415433.2781319806-.9448381492.3855344941-.2983966058.1079091291-.5223207141.1783287016-.6712657092.2112587175.1656633109.0334366316.4017461943.099803279.7087552658.1990999424.3065024559.0992966634.6089519868.2239241083.9073485926.3728691034l6.9369210857,3.3408393454c.3045494544.1466718141.498169894.4548247515.498169894.7928528438v.6268115828c0,.6499601778-.6803759914,1.0756449027-1.2648802748.7913862609Z"/>
      <path class="cls-5" d="m34.6294466728,21.3648410315l8.3064202165,4.039614074c.8074407908.3926780848,1.3199223134,1.211782233,1.3199223134,2.1096445326v.0000028097c0,.8209178523-.4685631985,1.5698269205-1.2068084285,1.928853522l-8.4195341014,4.094624106c-.5845042834.2842586418-1.2648802747-.1414260831-1.2648802747-.7913862609v-.5501655959c0-.3388903606.1945986367-.6476692828.5003228758-.793886129l6.9347681039-3.3166487681c.3318332374-.1494516107.6464415433-.2781319806.9448381492-.3855344941.2983966058-.1079091291.5223207141-.1783287016.6712657092-.2112587175-.1656633109-.0334366316-.4017461943-.099803279-.7087552658-.1990999424-.3065024559-.0992966634-.6089519868-.2239241083-.9073485926-.3728691034l-6.9369210857-3.3408393454c-.3045494544-.1466718141-.498169894-.4548247515-.498169894-.7928528439v-.6268115828c0-.6499601778.6803759914-1.0756449027,1.2648802747-.7913862609Z"/>
    </g>
  </g>
</svg>