<?xml version="1.0" encoding="UTF-8"?>
<svg id="Layer_1" data-name="Layer 1" xmlns="http://www.w3.org/2000/svg" xmlns:xlink="http://www.w3.org/1999/xlink" viewBox="0 0 206.0751517298 60.2409440974">
  <defs>
    <style>
      .cls-1 {
        filter: url(#drop-shadow-2);
      }

      .cls-2 {
        filter: url(#drop-shadow-1);
      }

      .cls-2, .cls-3, .cls-4, .cls-5, .cls-6, .cls-7, .cls-8, .cls-9 {
        stroke-width: 0px;
      }

      .cls-2, .cls-5 {
        fill: #fff;
      }

      .cls-3 {
        fill: #231f20;
      }

      .cls-4 {
        fill: #b4ce00;
      }

      .cls-6 {
        fill: #00c1d6;
      }

      .cls-7 {
        fill: #004697;
      }

      .cls-8 {
        fill: #0382e2;
      }

      .cls-9 {
        fill: #0060c7;
      }
    </style>
    <filter id="drop-shadow-1" filterUnits="userSpaceOnUse">
      <feOffset dx=".9396981693" dy=".9396981693"/>
      <feGaussianBlur result="blur" stdDeviation=".4698490847"/>
      <feFlood flood-color="#002672" flood-opacity=".3"/>
      <feComposite in2="blur" operator="in"/>
      <feComposite in="SourceGraphic"/>
    </filter>
    <filter id="drop-shadow-2" filterUnits="userSpaceOnUse">
      <feOffset dx=".9396981693" dy=".9396981693"/>
      <feGaussianBlur result="blur-2" stdDeviation=".4698490847"/>
      <feFlood flood-color="#002672" flood-opacity=".3"/>
      <feComposite in2="blur-2" operator="in"/>
      <feComposite in="SourceGraphic"/>
    </filter>
  </defs>
  <path class="cls-7" d="m8.9348819719,23.0316196448c3.4109096527-4.3854789734,5.5189465525-9.3810861413,8.1616572382-14.2048156564,1.6863594055-3.0782399178,2.9048928354-6.1768180094,4.6019524668-8.5573583803C8.9002014242,2.1168064574-.5554184474,13.4876167277.025371534,26.4099561671c0,.0018692017.0001500007.0037708282.00031.0056400299.051049998,1.0218200684.1851300057,2.0390892029.3953100201,3.0398406982,3.0229799449-1.9069499969,6.2738305652-3.5436483357,8.5138904178-6.4238172505h0Z"/>
  <g>
    <path class="cls-3" d="m70.8258095229,25.4713438935V7.8236244637h5.4635885073c1.0474288003,0,1.9659947411.2136565885,2.7558945595.6405762911.789506344.427313177,1.4021459541,1.0194921193,1.8373286187,1.7769303013.4351826646.7576349192.6527739969,1.6439359608.6527739969,2.6590998619,0,1.193014321-.310451286,2.2162444469-.9307636465,3.0702805893-.6207058349.8544296168-1.4625442715,1.4424770781-2.5263022586,1.7647325955l3.6988559118,7.7360997906h-2.5626986387l-3.384469882-7.4943097839h-2.8284905826v7.4943097839h-2.1757165857Zm2.1757165857-9.4524350374h3.2878719216c.9024334912,0,1.627606774-.2860558745,2.1757165857-.8581676234.5477163373-.5719150117.8219679804-1.3256151872.8219679804-2.2605103147,0-.9506341027-.274251643-1.7080722848-.8219679804-2.2723145461-.5481098117-.5640455241-1.2732830946-.8461666548-2.1757165857-.8461666548h-3.2878719216v6.237159139Z"/>
    <path class="cls-3" d="m83.8720428126,25.4713438935v-1.9823239278h4.7140198129v-9.3316384026h-4.1096431648v-1.9823239278h6.2855564877v11.3139623305h4.4722298062v1.9823239278h-11.3621629421Zm5.5601864677-15.6895941763c-.5317806249,0-.9510275771-.1367323471-1.257150645-.4109839902-.306319805-.2738581687-.4591846018-.6445110349-.4591846018-1.1119585987,0-.4835800134.1528647967-.8662338482.4591846018-1.148551716.3061230679-.2817276563.72537002-.4229849588,1.257150645-.4229849588.5319773621,0,.9508308399.1412573025,1.257150645.4229849588.3059263307.2823178678.459381339.6649717027.459381339,1.148551716,0,.4674475638-.1534550083.83810043-.459381339,1.1119585987-.306319805.2742516431-.7251732828.4109839902-1.257150645.4109839902Z"/>
    <path class="cls-3" d="m98.7152735969,25.4713438935l-4.448227869-13.2962862583h2.2241139345l2.9494839546,8.9448530868c.1770634711.5317806249.338387967,1.0434940565.4833832762,1.5349435575.1451920463.4918429753.2496594943.8746935474.3143860298,1.148551716.0804655108-.2738581687.1933926579-.6567087407.338387967-1.148551716.1449953091-.491449501.2980568431-1.0031629325.459381339-1.5349435575l2.8768879314-8.9448530868h2.1999152601l-4.448227869,13.2962862583h-2.9494839545Z"/>
    <path class="cls-3" d="m113.002525082,25.7131339002c-1.0478222747,0-1.9622567344-.2097218447-2.7438935909-.6285753225-.7818335936-.419050215-1.3862102417-1.0112291573-1.8131299443-1.7769303013-.4271164398-.7653076696-.6405762911-1.6559369294-.6405762911-2.6712975677v-3.6262598886c0-1.0312963507.2134598513-1.9256636171.6405762911-2.6834952735.4269197026-.757438182,1.0312963507-1.3452889062,1.8131299443-1.7647325955.7816368564-.4188534778,1.6960713162-.6285753225,2.7438935909-.6285753225,1.0474288003,0,1.9618632601.2097218447,2.7438935909.6285753225.7814401192.4194436894,1.3858167673,1.0072944135,1.8131299443,1.7647325955.4267229654.7578316564.6405762911,1.6521989228.6405762911,2.6834952735v2.3451073065h-8.2678804156v1.2811525822c0,1.0478222747.2659886811,1.8493295873.797769306,2.4053088866.5319773621.5561760365,1.289218807.8341656862,2.2725112833.8341656862.8379036928,0,1.5146796269-.1487333157,2.0307212766-.4473803704.5156481754-.2978601059.829837468-.7452404762.9427646151-1.3415508996h2.1757165857c-.1449953091,1.1121553359-.6889736399,1.9943248964-1.631738255,2.6470988933s-2.1153182684.9791609953-3.5174642225.9791609953Zm3.0702805893-7.8086958138v-.8943672664c0-1.0474288003-.2622506745-1.8532643311-.7857683374-2.4175065924-.5239111373-.5638487869-1.2854808004-.8461666548-2.2845122519-.8461666548-.9832924763,0-1.7405339212.2823178678-2.2725112833.8461666548-.5317806249.5642422613-.797769306,1.3700777921-.797769306,2.4175065924v.7011713457h6.3097551621l-.1691939835.1931959207Z"/>
    <path class="cls-3" d="m121.246010086,25.4713438935v-13.2962862583h2.127319237v2.5383032272h.5077786877l-.7011713457,1.5715366748c0-1.4342141161.3100578117-2.5180392966.9307636465-3.2516722786.6203123605-.7330427705,1.5430097823-1.0999576301,2.7680922652-1.0999576301,1.4021459541,0,2.5178425594.4393141456,3.348270239,1.3175489624.829837468.8786282912,1.2449529392,2.0669209196,1.2449529392,3.5658615713v.797769306h-2.1757165857v-.6043766481c0-1.0474288003-.2539877125-1.8493295873-.761569663-2.4053088866-.5075819506-.5561760365-1.229213964-.8341656862-2.1637156171-.8341656862-.9185659408,0-1.640001217.2821211307-2.1637156171.8461666548-.5239111373.5644389985-.7855716002,1.3620115673-.7855716002,2.393307918v8.4612730735h-2.1757165857Z"/>
    <path class="cls-3" d="m137.7331768311,25.6647365514c-.9028269655,0-1.6883985658-.1412573025-2.357108275-.423181696-.6689064465-.2817276563-1.2006870714-.6805139407-1.595538612-1.1965555904-.3950482778-.5154514382-.6327068035-1.1278943111-.7131723143-1.8373286187h2.1757165857c.0967946975.467644301.3584551604.8382971672.7857683374,1.1121553359.4269197026.2742516431.9948999705.410787253,1.7043342782.410787253h1.0153606383c.8540361424,0,1.4904809525-.1727352529,1.9099246419-.5197796563.4188534778-.3462574546.6283785853-.8097702746.6283785853-1.3899482483,0-.5640455241-.1894579141-1.0110324201-.5679802679-1.3415508996-.3789158282-.3303217422-.9390266085-.5520445555-1.6801356038-.6649717027l-1.7891280071-.2899906183c-1.3053512566-.2254608199-2.2764460271-.6323133291-2.9130875744-1.220951002-.6368382845-.5882441985-.9547655837-1.4464118219-.9547655837-2.5745028702,0-1.1926208466.3783256166-2.1153182684,1.136157273-2.7680922652.757438182-.6527739969,1.8935954551-.9791609953,3.4086685563-.9791609953h.9187626779c1.2728896202,0,2.2965132205.2984503174,3.0700838521.8945640036.7735706316.5963104233,1.2408214582,1.4019492169,1.4021459541,2.4175065924h-2.1757165857c-.0965979604-.419050215-.338387967-.753306701-.7251732829-1.0033596697-.3867853158-.2496594943-.9106964532-.37458761-1.5713399376-.37458761h-.9187626779c-.8219679804,0-1.4226066219.1532582711-1.8009322385.4591846018-.3789158282.306319805-.5681770051.765701144-.5681770051,1.3779472797,0,.5481098117.1609310215.9512243143.4833832762,1.2087532962.3222555174.2581191935.8300342052.4434456266,1.5231393261.5559792993l1.7889312699.2901873555c1.4342141161.2258542943,2.4779049098.6447077721,3.1306789067,1.257150645.6527739969.6126396101.9791609953,1.4989406517.9791609953,2.6592965991,0,1.2248857458-.391113534,2.1877175543-1.1725536532,2.8888889-.7818335936.7011713457-1.9622567344,1.0515602813-3.5416628969,1.0515602813h-1.0153606383Z"/>
    <path class="cls-3" d="m150.5700817505,25.7131339002c-1.0637579871,0-1.9945216336-.2016556199-2.7922909396-.6043766481s-1.4143436599-.9870304829-1.8493295873-1.7527316269c-.4351826646-.7653076696-.6527739969-1.6718726418-.6527739969-2.7196949165v-3.6262598886c0-1.0635612499.2175913323-1.9740609658.6527739969-2.7318926223.4349859274-.7572414448,1.0515602813-1.3374194186,1.8493295873-1.7405339212.797769306-.4027210282,1.7285329526-.6043766481,2.7922909396-.6043766481,1.5308120765,0,2.7637640471.4109839902,3.6986591746,1.2329519706.9345016532.8219679804,1.4263446285,1.942189541,1.4747419773,3.3602712076h-2.1757165857c-.0483973488-.8538394052-.3346499604-1.5109416203-.8583643606-1.970126222-.5239111373-.459381339-1.2370834516-.6889736399-2.1393202056-.6889736399-.9512243143,0-1.7086624964.2699234249-2.2725112833.8097702746-.5644389985.5402403241-.8461666548,1.3094827376-.8461666548,2.3087109263v3.650458563c0,.9994249259.2817276563,1.7729955575.8461666548,2.3207118949.5638487869.5481098117,1.321286969.8219679804,2.2725112833.8219679804.902236754,0,1.6154090682-.2333303075,2.1393202056-.7009746085.5237144001-.4672508266.8099670118-1.1200248235.8583643606-1.9581252534h2.1757165857c-.0483973488,1.4182784037-.5402403241,2.5383032272-1.4747419773,3.3602712076-.9348951275.8219679804-2.1678470981,1.2329519706-3.6986591746,1.2329519706Z"/>
    <path class="cls-3" d="m162.1254406132,25.7131339002c-1.4021459541,0-2.5062350652-.3586518976-3.312070596-1.0759556929-.806032268-.7169103209-1.2087532962-1.6880050914-1.2087532962-2.9128908372,0-1.2410181954.4027210282-2.2158509725,1.2087532962-2.9252852802.8058355308-.7088440961,1.8935954551-1.0637579871,3.2636732472-1.0637579871h4.109839902v-1.329549931c0-.8219679804-.2459214877-1.4542813095-.7373709886-1.8977269361-.4918429753-.4430521522-1.1886861028-.6649717027-2.091119594-.6649717027-.7898998184,0-1.4505433029.1656527141-1.982520665.4957777191-.5317806249.3305184794-.83810043.7777021126-.9185659408,1.3417476367h-2.1757165857c.1449953091-1.1442234978.6848421589-2.054919951,1.6197372864-2.7318926223.9345016532-.6767759341,2.1031205626-1.0153606383,3.5052665167-1.0153606383,1.5310088137,0,2.7397621099.395245015,3.6262598886,1.1845546218.8863010416.7898998184,1.3297466681,1.8615272931,1.3297466681,3.2154726356v9.1380490075h-2.1275159742v-2.5383032272h-.3625866414l.3625866414-.3627833786c0,.9671600267-.37458761,1.7328611707-1.1241563044,2.2967099577-.7493719572.5642422613-1.7446654021.8461666548-2.9854868604.8461666548Zm.5317806249-1.716531984c1.0312963507,0,1.8774630055-.2575289819,2.5384999644-.7735706316.6606434845-.5154514382.9911619639-1.1760949226.9911619639-1.9823239278v-1.8855292303h-4.0614425532c-.72537002,0-1.297481769.2014588827-1.716531984.6043766481-.4192469522.4029177654-.6285753225.9510275771-.6285753225,1.6437392236,0,.7415024696.2539877125,1.3258119243.761569663,1.7527316269.5077786877.427313177,1.2124913028.6405762911,2.1153182684.6405762911Z"/>
    <path class="cls-3" d="m171.0699002257,29.822777065V12.1750576352h2.1757165857v2.5383032272h.4351826646l-.4351826646.5077786877c0-1.0153606383.334256486-1.8168679509,1.0033596697-2.4055056238.6685129721-.5880474613,1.5508792699-.8823662978,2.6470988933-.8823662978,1.3376161558,0,2.4055056238.4393141456,3.2032749298,1.3175489624.797769306.8786282912,1.1965555904,2.0832501064,1.1965555904,3.6140621828v3.8922485697c0,1.0155573755-.1811949521,1.8941856667-.5439783307,2.6350979247-.3625866414.7416992068-.870168592,1.3138109557-1.5229425889,1.716531984s-1.4304761095.6043766481-2.3329096007.6043766481c-1.0798904367,0-1.9581252534-.2980568431-2.6350979247-.8945640036-.6769726713-.5961136861-1.0153606383-1.3936862549-1.0153606383-2.393307918l.4351826646.5077786877h-.4835800134l.0483973488,3.0218832405v3.8678531581h-2.1757165857Zm5.1010018659-5.9953691323c.9185659408,0,1.6396077426-.2738581687,2.1635188799-.8219679804.5237144002-.5477163373.7857683374-1.3374194186.7857683374-2.3691092436v-3.6262598886c0-1.0312963507-.2620539373-1.8209994319-.7857683374-2.3691092436-.5239111373-.5477163373-1.2449529392-.8219679804-2.1635188799-.8219679804-.886694516,0-1.595538612.2821211307-2.1275159742.8459699176-.5317806249.5644389985-.797769306,1.3460758549-.797769306,2.3451073064v3.6262598886c0,.9994249259.2659886811,1.7810617823.797769306,2.3451073065.5319773621.5642422613,1.2408214582.8459699176,2.1275159742.8459699176Z"/>
    <path class="cls-3" d="m188.9110123134,25.7131339002c-1.0478222747,0-1.9622567344-.2097218447-2.7438935909-.6285753225-.7818335936-.419050215-1.3862102417-1.0112291573-1.8131299443-1.7769303013-.4271164398-.7653076696-.6405762911-1.6559369294-.6405762911-2.6712975677v-3.6262598886c0-1.0312963507.2134598513-1.9256636171.6405762911-2.6834952735.4269197026-.757438182,1.0312963507-1.3452889062,1.8131299443-1.7647325955.7816368564-.4188534778,1.6960713162-.6285753225,2.7438935909-.6285753225,1.0474288003,0,1.9618632601.2097218447,2.7438935909.6285753225.7814401192.4194436894,1.3858167673,1.0072944135,1.8131299443,1.7647325955.4267229654.7578316564.6405762911,1.6521989228.6405762911,2.6834952735v2.3451073065h-8.2678804156v1.2811525822c0,1.0478222747.2659886811,1.8493295873.797769306,2.4053088866.5319773621.5561760365,1.289218807.8341656862,2.2725112833.8341656862.8379036928,0,1.5146796269-.1487333157,2.0307212766-.4473803704.5156481753-.2978601059.829837468-.7452404762.9427646151-1.3415508996h2.1757165857c-.1449953091,1.1121553359-.6889736399,1.9943248964-1.631738255,2.6470988933s-2.1153182684.9791609953-3.5174642225.9791609953Zm3.0702805893-7.8086958138v-.8943672664c0-1.0474288003-.2622506745-1.8532643311-.7857683374-2.4175065924-.5239111373-.5638487869-1.2854808004-.8461666548-2.2845122519-.8461666548-.9832924763,0-1.7405339212.2823178678-2.2725112833.8461666548-.5317806249.5642422613-.797769306,1.3700777921-.797769306,2.4175065924v.7011713457h6.3097551621l-.1691939835.1931959207Z"/>
    <path class="cls-3" d="m200.3455745414,25.6647365514c-.9028269655,0-1.6883985658-.1412573025-2.357108275-.423181696-.6689064465-.2817276563-1.2006870714-.6805139407-1.595538612-1.1965555904-.3950482778-.5154514382-.6327068035-1.1278943111-.7131723143-1.8373286187h2.1757165857c.0967946975.467644301.3584551604.8382971672.7857683374,1.1121553359.4269197026.2742516431.9948999705.410787253,1.7043342782.410787253h1.0153606383c.8540361424,0,1.4904809525-.1727352529,1.9099246419-.5197796563.4188534778-.3462574546.6283785853-.8097702746.6283785853-1.3899482483,0-.5640455241-.1894579141-1.0110324201-.5679802679-1.3415508996-.3789158282-.3303217422-.9390266085-.5520445555-1.6801356038-.6649717027l-1.7891280071-.2899906183c-1.3053512566-.2254608199-2.2764460271-.6323133291-2.9130875744-1.220951002-.6368382845-.5882441985-.9547655837-1.4464118219-.9547655837-2.5745028702,0-1.1926208466.3783256166-2.1153182684,1.136157273-2.7680922652.757438182-.6527739969,1.8935954551-.9791609953,3.4086685563-.9791609953h.9187626779c1.2728896202,0,2.2965132205.2984503174,3.0700838521.8945640036.7735706316.5963104233,1.2408214582,1.4019492169,1.4021459541,2.4175065924h-2.1757165857c-.0965979604-.419050215-.338387967-.753306701-.7251732828-1.0033596697-.3867853158-.2496594943-.9106964532-.37458761-1.5713399376-.37458761h-.9187626779c-.8219679804,0-1.4226066219.1532582711-1.8009322385.4591846018-.3789158282.306319805-.5681770051.765701144-.5681770051,1.3779472797,0,.5481098117.1609310215.9512243143.4833832762,1.2087532962.3222555174.2581191935.8300342052.4434456266,1.5231393261.5559792993l1.7889312699.2901873555c1.4342141161.2258542943,2.4779049098.6447077721,3.1306789067,1.257150645.6527739969.6126396101.9791609953,1.4989406517.9791609953,2.6592965991,0,1.2248857458-.391113534,2.1877175543-1.1725536532,2.8888889-.7818335936.7011713457-1.9622567344,1.0515602813-3.5416628969,1.0515602813h-1.0153606383Z"/>
    <path class="cls-3" d="m76.0440049705,53.8780334144c-1.0827017185,0-2.0220310623-.2052467656-2.817387309-.6151395745-.795956969-.4098928089-1.4110965434-1.0046078272-1.8454187235-1.7839448142-.4349229023-.7789365055-.6521841127-1.7016458672-.6521841127-2.7681280852v-8.119762287c0-1.0827017185.2172612104-2.0092156545.6521841127-2.7805430115.43432218-.7709268756,1.0494617545-1.3612365975,1.8454187235-1.7715298879.7953562467-.4098928089,1.7346855904-.6151395745,2.817387309-.6151395745,1.0825014778,0,2.0176257658.2092515805,2.8049723827.6273542601.7873466168.4183029203,1.39407608,1.0132181793,1.8207891116,1.7839448142.4263125502.7711271163.6397691864,1.6898316631.6397691864,2.7559133997h-2.21446242c0-1.0170227535-.2669209156-1.8001643147-.7997615431-2.3500254057-.533241109-.5492603688-1.2837434284-.8241909143-2.2513067175-.8241909143-.9681640113,0-1.7266759606.2707254898-2.2761365701.8119762287-.5496608503.5412507389-.8241909143,1.3205877258-.8241909143,2.3374102386v8.1445921397c0,1.0172229943.274530064,1.8005647962.8241909143,2.3498251649.5494606095.5496608503,1.3079725588.824391155,2.2761365701.824391155.9675632891,0,1.7180656085-.2747303048,2.2513067175-.824391155.5328406275-.5492603688.7997615431-1.3326021707.7997615431-2.3498251649h2.21446242c0,1.0500624768-.2134566362,1.9645619679-.6397691864,2.7434984734-.4267130317.779336987-1.0334424948,1.3778565795-1.8207891116,1.7963597405-.7873466168.4181026795-1.7224709049.6273542601-2.8049723827.6273542601Z"/>
    <path class="cls-3" d="m88.8354156768,53.8287741907c-1.1399249556,0-2.1242618555-.2048462841-2.9532215236-.6151395745-.8289596681-.4098928089-1.4726051073-1.0046078272-1.9300930217-1.7839448142-.4576987384-.7789365055-.6864426957-1.7016458672-.6864426957-2.7681280852v-3.5923189995c0-1.0827017185.2287439572-2.0092156545.6864426957-2.7805430115.4574879145-.7709268756,1.1011333536-1.3612365975,1.9300930217-1.7715298879.8289596681-.4098928089,1.813296568-.6151395745,2.9532215236-.6151395745s2.1242618555.2052467656,2.9532215236.6151395745c.8289596681.4102932904,1.4721834594,1.0006030123,1.9300930217,1.7715298879.4572770906.7713273571.6864426957,1.6896314224.6864426957,2.7559133997v3.6169486114c0,1.066482218-.2291656051,1.9891915798-.6864426957,2.7681280852-.4579095623.779336987-1.1011333536,1.3740520053-1.9300930217,1.7839448142-.8289596681.4102932904-1.813296568.6151395745-2.9532215236.6151395745Zm0-1.9685667828c1.0189120234,0,1.8135073919-.2705252491,2.3833644578-.811775988.5698570658-.5414509796.8548910107-1.3368072263.8548910107-2.3868697031v-3.5923189995c0-1.0496619953-.2850339449-1.8454187235-.8548910107-2.3868697031-.5698570658-.5412507389-1.3644524344-.811775988-2.3833644578-.811775988-1.0018352856,0-1.7920033517.2705252491-2.3705041984.811775988-.5787116706.5414509796-.8677512701,1.3372077078-.8677512701,2.3868697031v3.5923189995c0,1.0500624768.2890395994,1.8454187235.8677512701,2.3868697031.5785008467.5412507389,1.3686689129.811775988,2.3705041984.811775988Z"/>
    <path class="cls-3" d="m96.9048857424,53.6319375364v-13.5330706389h2.4007111089v2.5835061166h.5068867383l-.5068867383.5168213678c0-1.0662819773.3468972196-1.8904728915,1.0402574947-2.4727729835.6935773572-.582300092,1.6539486336-.8736503788,2.8811138292-.8736503788,1.4757242172,0,2.6494872126.4183029203,3.521071904,1.2549087609.8709334451.8366058406,1.3070514139,1.9767766535,1.3070514139,3.4201119572v9.1041457988h-2.4007111089v-8.8580499209c0-.9677635298-.2802530104-1.7100559786-.8403248669-2.2268773463-.5602889386-.516621127-1.3205105051-.7749316905-2.2806646993-.7749316905-.9961898254,0-1.7831124919.2791356012-2.3607679998.8366058406-.578089672.5578707209-.867025967,1.361637079-.867025967,2.4112990742v8.6119540429h-2.4007111089Z"/>
    <path class="cls-3" d="m114.8851531855,53.8287741907c-.9189047876,0-1.71846609-.1437728563-2.3990843887-.4307178466-.6808185395-.2867447496-1.2220692784-.6926327436-1.6239524574-1.2178642227-.4020834198-.5246307569-.6439742421-1.147980202-.7258727075-1.8700483354h2.21446242c.0985184475.4759722554.3648386409.8532258226.7997615431,1.1319609423.4345224208.2791356012,1.0126174571.4181026795,1.7346855904.4181026795h1.0334424948c.8692450823,0,1.5170238986-.1758113758,1.943937171-.5290360533.4263125502-.3524237146.6395689456-.8241909143.6395689456-1.4147008769,0-.5740902214-.1928318393-1.0290371984-.5780950363-1.3654416532-.3856636785-.3362042141-.955749085-.5618755358-1.7100559786-.6768137245l-1.8209893524-.2951548609c-1.3285973557-.229475896-2.3169856825-.6435737606-2.9649647394-1.2426940753-.6481792977-.5987198333-.9717683447-1.4721699713-.9717683447-2.620350414,0-1.2138594077.3850629563-2.1529885107,1.1563903134-2.817387309.7709268756-.6643987982,1.927317189-.9965981974,3.4693711809-.9965981974h.9351242881c1.2955576325,0,2.3374102386.3037652131,3.1247568555.9104946762.7873466168.6069297039,1.2629183907,1.4269155625,1.4271158032,2.460558298h-2.21446242c-.0983182067-.4265127909-.3444140847-.7667218199-.7380873931-1.0212278092-.3936733084-.2541055078-.9269144174-.3812583821-1.5993228455-.3812583821h-.9351242881c-.8366058406,0-1.4479408409.1559875418-1.8330037972.4673619033-.3856636785.3117748429-.5782952771.779336987-.5782952771,1.4024861913,0,.5578707209.163796931.9681640113.4919915151,1.230279149.3279943434.2627158599.8448157112.4513426435,1.5502638625.5658803508l1.8207891116.2953551017c1.4597550449.2298763774,2.5220322073.6561889276,3.1864310055,1.2795383727.6643987982.6235496859.9965981974,1.5256342507.9965981974,2.7066541759,0,1.2466988902-.3980786049,2.2266771056-1.1934348516,2.9403351276-.7957567282.713658022-1.9972012096,1.0702867922-3.6047339258,1.0702867922h-1.0334424948Z"/>
    <path class="cls-3" d="m128.3852016182,53.8287741907c-1.1399249556,0-2.1242618555-.2048462841-2.9532215236-.6151395745-.8289596681-.4098928089-1.4726051073-1.0046078272-1.9300930217-1.7839448142-.4576987384-.7789365055-.6864426957-1.7016458672-.6864426957-2.7681280852v-3.5923189995c0-1.0827017185.2287439572-2.0092156545.6864426957-2.7805430115.4574879145-.7709268756,1.1011333536-1.3612365975,1.9300930217-1.7715298879.8289596681-.4098928089,1.813296568-.6151395745,2.9532215236-.6151395745s2.1242618555.2052467656,2.9532215236.6151395745c.8289596681.4102932904,1.4721834594,1.0006030123,1.9300930218,1.7715298879.4572770906.7713273571.6864426957,1.6896314224.6864426957,2.7559133997v3.6169486114c0,1.066482218-.2291656051,1.9891915798-.6864426957,2.7681280852-.4579095623.779336987-1.1011333536,1.3740520053-1.9300930218,1.7839448142-.8289596681.4102932904-1.813296568.6151395745-2.9532215236.6151395745Zm0-1.9685667828c1.0189120234,0,1.8135073919-.2705252491,2.3833644578-.811775988.5698570658-.5414509796.8548910107-1.3368072263.8548910107-2.3868697031v-3.5923189995c0-1.0496619953-.2850339449-1.8454187235-.8548910107-2.3868697031-.5698570658-.5412507389-1.3644524344-.811775988-2.3833644578-.811775988-1.0018352856,0-1.7920033517.2705252491-2.3705041984.811775988-.5787116706.5414509796-.8677512701,1.3372077078-.8677512701,2.3868697031v3.5923189995c0,1.0500624768.2890395994,1.8454187235.8677512701,2.3868697031.5785008467.5412507389,1.3686689129.811775988,2.3705041984.811775988Z"/>
    <path class="cls-3" d="m136.1870141464,53.6319375364v-13.5330706389h2.1652031963v2.5835061166h.5168213678l-.713658022,1.5995230863c0-1.4597550449.3155794171-2.5628813197.9473389736-3.3095790649.631359075-.746097023,1.570488178-1.119546016,2.817387309-1.119546016,1.4271158032,0,2.5626810789.4471375878,3.4078972716,1.341012282.8446154704.8942751757,1.2671234464,2.103729287,1.2671234464,3.6293635377v.8119762287h-2.21446242v-.6151395745c0-1.0660817365-.2585108043-1.8822630209-.7751319313-2.4481433717-.516621127-.5660805915-1.2511041867-.8490207669-2.2022477345-.8490207669-.9349240473,0-1.6692068662.2871452311-2.2022477345.8612354524-.533241109.5744907029-.7995613024,1.3862666908-.7995613024,2.4359286861v8.6119540429h-2.21446242Z"/>
    <path class="cls-3" d="m155.7647522122,53.6319375364c-1.1650006655,0-2.0710900453-.3113743614-2.7188688615-.935124288-.6483795385-.6231492044-.9719685855-1.5008043981-.9719685855-2.6327653403v-7.9475552447h-3.8139855063v-2.0176257658h3.8139855063v-3.8137852656h2.21446242v3.8137852656h5.4133083519v2.0176257658h-5.4133083519v7.9475552447c0,1.0336427355.4921917559,1.5502638625,1.4763750269,1.5502638625h3.690837447v2.0176257658h-3.690837447Z"/>
    <path class="cls-3" d="m162.038895535,53.6319375364v-2.0176257658h4.7979685366v-9.4978191072h-4.1828289621v-2.0176257658h6.3974916229v11.5154448731h4.5518726587v2.0176257658h-11.5645038561Zm5.6592039891-15.968999325c-.5412507389,0-.9679637705-.1391673191-1.2795383727-.4183029203-.3117748429-.2787351197-.4673619033-.6559886869-.4673619033-1.1317607015,0-.4921917559.1555870603-.8816600086.4673619033-1.1690054804.3115746022-.2867447496.7382876339-.4305176058,1.2795383727-.4305176058.5414509796,0,.9677635298.1437728563,1.2795383727.4305176058.3113743614.2873454718.467562144.6768137245.467562144,1.1690054804,0,.4757720146-.1561877826.8530255818-.467562144,1.1317607015-.3117748429.2791356012-.7380873931.4183029203-1.2795383727.4183029203Z"/>
    <path class="cls-3" d="m179.8531133427,53.8780334144c-1.5586739739,0-2.8049723827-.4633570883-3.7400966707-1.3902715058-.9349240473-.9265139359-1.4024861913-2.1856277525-1.4024861913-3.7769409681v-8.6119540429h2.21446242v8.6119540429c0,1.0172229943.2623153784,1.8085744261.7875468576,2.3744547768.5246307569.5658803508,1.2382887789.8490207669,2.1405735844.8490207669.9185043061,0,1.6443770136-.2831404161,2.1776181226-.8490207669.5328406275-.5658803508.7997615431-1.3572317825.7997615431-2.3744547768v-8.6119540429h2.21446242v8.6119540429c0,1.5913132157-.4759722554,2.8504270322-1.4271158032,3.7769409681-.9515440293.9269144174-2.2064527902,1.3902715058-3.7647262826,1.3902715058Z"/>
    <g>
      <path class="cls-3" d="m187.7788821083,53.6319375364v-13.5330706389h2.21446242v2.5835061166h.467562144l-.467562144.5168213678c0-1.0662819773.3199847136-1.8904728915.9595536592-2.4727729835.6397691864-.582300092,1.5256342507-.8736503788,2.6575951929-.8736503788,1.3612365975,0,2.443938316.4183029203,3.2479049148,1.2549087609.8033658766.8366058406,1.2056495371,1.9767766535,1.2056495371,3.4201119572v9.1041457988h-2.21446242v-8.8580499209c0-.9677635298-.2585108043-1.7100559786-.7751319313-2.2268773463-.5168213678-.516621127-1.2180644634-.7749316905-2.103729287-.7749316905-.9189047876,0-1.6447774951.2791356012-2.1776181226.8366058406-.533241109.5578707209-.7997615431,1.361637079-.7997615431,2.4112990742v8.6119540429h-2.21446242Z"/>
      <path class="cls-3" d="m198.0640478324,42.4476105554l.130624932.6750012852-.4863884509.1382869125c0-1.0662819773.6161488258-1.9521772628,1.2557177715-2.5344773548.6397691864-.582300092,1.5256342507-.8736503788,2.6575951929-.8736503788,1.3612365975,0,2.443938316.4183029203,3.2479049148,1.2549087609.8033658766.8366058406,1.2056495371,1.9767766535,1.2056495371,3.4201119572v9.1041457988h-2.21446242v-8.8580499209c0-.9677635298-.2585108043-1.7100559786-.7751319313-2.2268773463-.5168213678-.516621127-1.2180644634-.7749316905-2.103729287-.7749316905-.9189047876,0-1.6447774951.2791356012-2.1776181226.8366058406-.533241109.5578707209-.7997615431,1.361637079-.7997615431,2.4112990742v8.6119540429h-2.21446242"/>
    </g>
  </g>
  <g>
    <g>
      <path class="cls-9" d="m35.4077507101,2.0743064383c-.2544708252-.1056499481-.5076789856-.2135499716-.7631416321-.3173799515-.0042800903-.002120018-.0085601807-.0033400059-.012840271-.0051900148-.5754699707-.2192800045-1.153968811-.4301799536-1.7424201965-.6137999296,0-.0000300407-.0001602173-.0000699759-.0003089905-.0001100302-.0042800903-.0012199879-.0091705322-.0024499893-.012840271-.0039800406-.5928192139-.1853600144-1.195520401-.3391599655-1.7989902496-.4867399931-.0030593872-.0005900264-.0061092377-.0015500188-.010389328-.0024499893-.6166191101-.1346399784-1.2338905334-.2611599863-1.8589191437-.3558799922-.6294708252-.0968700051-1.265039444-.1613699943-1.8998794556-.2173999995-.0012207031-.0002899989-.0036697388-.0002899989-.0048904419-.0002899989-1.8676795959-.1394899935-3.7516498566-.0738599971-5.6046199799.1983600035-1.6970596313,2.3805399537-3.4439792633,4.9784098268-5.1303291321,8.0566502213-2.6427097321,4.8237295151-4.6224994659,9.8399000168-8.0334100723,14.2253789902-2.2400598526,2.8801708221-5.0907897949,4.9969997406-8.1137800217,6.9039497375.4510599971,2.1712608337,1.2692699432,4.252948761,2.3254899979,6.198890686h-.0003099442c.2376198769.4362792969.4858300686.8669204712.7452499866,1.291229248.0019900799.0030784607.0036699772.0061683655.0056600571.0092506409.1460900307.2390098572.2967998981.475769043.449559927.7115287781,9.3516702652-5.7955303192,19.5530395508-9.2704391479,25.7399196625-17.1998405457-.0001392365.0001602173-.0002708435.0003204346-.00041008.0004806519,1.5898799896-2.0199508667,2.8735313416-4.2748908997,3.8280296326-6.6611499786,1.4426002502-3.6308603287,2.1741790771-7.5098600388,2.7157897949-11.3584604263-.2714309692-.1291699409-.5459785461-.2537600994-.8222007751-.3730499744l-.0000190735.0000019073Z"/>
      <path class="cls-8" d="m49.4052597128,17.3002969722c.0023002625-.000919342.0045890808-.0018501282.006729126-.0027694702-.3155517578-.9330291748-.6857681274-1.8458499908-1.1043395996-2.7366800308-.015209198-.0307998657-.0286598206-.0625801086-.0434112549-.0935602188-.0006217957-.0006303787-.0006217957-.0009002686-.0006217957-.0009002686l-.0009117126.0001497269c-1.423248291-2.9756002426-3.4307098389-5.663069725-5.868888855-7.8835201263-.0010681152-.0008797646-.0018310547-.0018000603-.0028991699-.0026698112-.4497718811-.4097399712-.9203300476-.7965698242-1.3947982788-1.1774401665-.0005989075-.0005898476-.0012207031-.0014901161-.0018310547-.0018200874-.481880188-.3708200455-.9708900452-.7321600914-1.473991394-1.0741100311-.0003013611-.0001702309-.0005989075-.0003800392-.0009117126-.0005497932-.0018310547-.0012202263-.0042800903-.0024499893-.006111145-.0039901733-.0033607483-.0023298264-.0070304871-.0044698715-.0103988647-.0068001747.0006103516.0003399849.0012207031.000649929.0018310547.0009899139-.5012702942-.3390700817-1.0187911987-.6518900394-1.5391082764-.9603600502-.0036697388-.0014901161-.0067214966-.0033400059-.0103912354-.0051999092-.5660400391-.3180198669-1.1379585266-.6256198883-1.7252388-.9037098885-.6327590942,4.4761900902-1.9799118042,9.0162601471-3.9582710266,13.1202096939-3.2082805634,6.7880210876-8.8801403046,10.9591789246-15.021030426,14.5529003143-4.3189001083,2.5274715424-9.0121002197,4.66314888-13.3040304184,7.5458507538.3026399612.4670791626.6174001694.928150177.9436397552,1.3832511902,7.0997400284,4.1161193848,13.3366098404,7.0438995361,17.8710184097,10.6518211365,3.8105297089-15.5258712769,12.8683700562-19.4856090546,26.5299606323-25.0151996613.5251617432-.2145805359.9874305725-.4584293365,1.395160675-.7300701141-.1288299561-2.314250946-.5715789795-4.5456504822-1.2811698914-6.6558303833l.0000152588.0000076294Z"/>
      <g>
        <path class="cls-6" d="m23.5508609854,45.447136114c-.4799308777,1.4563789368-.789560318,2.8847007751-.789560318,4.2542495728,2.5833301544,2.0554885864,4.6138896942,4.3320503235,5.9366207123,7.1748695374,5.1638507843-5.1300888062,9.6284999847-9.900718689,14.3099918365-15.1517105103,0,0,0,.0000190735-.0001602173.0000190735,4.3807792664-4.9344100952,8.2560577393-10.823638916,7.6786689758-17.7684402466-3.3909797668,1.5317001343-6.9533500671,2.8819503784-10.2513198853,4.4570903778-7.5031700134,3.5836009979-14.033908844,8.1125621796-16.8842411041,17.0339221954Z"/>
        <path class="cls-4" d="m22.7613006674,49.7013971309c-4.5344104767-3.6079216003-10.7712802887-6.535697937-17.8710193634-10.6518211365,1.9544501305,2.7276306152,4.3048400879,5.2497596741,6.6649494171,7.6646995544,1.6407699585,1.676700592,3.3506202698,3.3899497986,5.0103607178,5.0306892395h-.0001506805c3.5284900665,3.4885597229,6.8767299652,6.7023696899,8.7601413727,8.4959793091,1.1118202209-1.1034698486,2.2578296661-2.2463302612,3.3723392487-3.3646812439-1.3227291107-2.8428192139-3.3533000946-5.1193809509-5.9366207123-7.1748657227Z"/>
      </g>
    </g>
    <path class="cls-2" d="m27.7423810984,46.075617119c-1.6729959589-2.6928674066-3.9106452358-6.4700100481-3.8738024469-10.1852352121.0354957049-9.3443652572,11.3803178287-18.9320666623,3.9972231019-27.0228001439-.0823704052-.0902652641-.2301252897-.0192552082-.2117470876.1015543247,1.5078645048,9.911981868-8.7791794711,17.0499223753-6.9076764593,27.0256555115.6329933936,3.251673924,3.1265555308,8.0778184841,6.9960028919,10.0808255197Z"/>
    <g class="cls-1">
      <path class="cls-5" d="m15.4102514754,33.5375800759l-8.3064202165-4.039614074c-.8074407908-.3926780848-1.3199223134-1.211782233-1.3199223134-2.1096445326v-.0000028097c0-.8209178523.4685631985-1.5698269205,1.2068084285-1.9288535221l8.4195341014-4.094624106c.5845042833-.2842586419,1.2648802748.1414260831,1.2648802748.7913862609v.5501655959c0,.3388903606-.1945986367.6476692828-.5003228758.793886129l-6.9347681039,3.3166487681c-.3318332374.1494516107-.6464415433.2781319806-.9448381492.3855344941-.2983966058.1079091291-.5223207141.1783287016-.6712657092.2112587175.1656633109.0334366316.4017461943.099803279.7087552658.1990999424.3065024559.0992966634.6089519868.2239241083.9073485926.3728691034l6.9369210857,3.3408393454c.3045494544.1466718141.498169894.4548247515.498169894.7928528438v.6268115828c0,.6499601778-.6803759914,1.0756449027-1.2648802748.7913862609Z"/>
      <path class="cls-5" d="m34.6294466728,21.3648410315l8.3064202165,4.039614074c.8074407908.3926780848,1.3199223134,1.211782233,1.3199223134,2.1096445326v.0000028097c0,.8209178523-.4685631985,1.5698269205-1.2068084285,1.928853522l-8.4195341014,4.094624106c-.5845042833.2842586418-1.2648802747-.1414260831-1.2648802747-.7913862609v-.5501655959c0-.3388903606.1945986367-.6476692828.5003228758-.793886129l6.9347681039-3.3166487681c.3318332374-.1494516107.6464415433-.2781319806.9448381492-.3855344941.2983966058-.1079091291.5223207141-.1783287016.6712657092-.2112587175-.1656633109-.0334366316-.4017461943-.099803279-.7087552658-.1990999424-.3065024559-.0992966634-.6089519868-.2239241083-.9073485926-.3728691034l-6.9369210857-3.3408393454c-.3045494544-.1466718141-.498169894-.4548247515-.498169894-.7928528439v-.6268115828c0-.6499601778.6803759914-1.0756449027,1.2648802747-.7913862609Z"/>
    </g>
  </g>
</svg>