<?xml version="1.0" encoding="utf-8"?>
<!-- Generator: Adobe Illustrator 27.6.1, SVG Export Plug-In . SVG Version: 6.00 Build 0)  -->
<svg version="1.1" id="a" xmlns="http://www.w3.org/2000/svg" xmlns:xlink="http://www.w3.org/1999/xlink" x="0px" y="0px"
	 viewBox="0 0 60 60" style="enable-background:new 0 0 60 60;" xml:space="preserve">
<style type="text/css">
	.st0{fill:#0060C7;}
	.st1{fill:#0382E2;}
	.st2{fill:#00C1D6;}
	.st3{fill:#004697;}
	.st4{fill:#B4CE00;}
	.st5{fill:#FFFFFF;}
</style>
<g>
	<path class="st0" d="M40.6,1.9c-0.3-0.1-0.5-0.2-0.8-0.3c0,0,0,0,0,0c-0.6-0.2-1.2-0.4-1.7-0.6c0,0,0,0,0,0c0,0,0,0,0,0
		c-0.6-0.2-1.2-0.3-1.8-0.5c0,0,0,0,0,0c-0.6-0.1-1.2-0.3-1.9-0.4C33.8,0,33.2,0,32.5-0.1c0,0,0,0,0,0c-1.9-0.1-3.8-0.1-5.6,0.2
		c-1.7,2.4-3.4,5-5.1,8.1c-2.6,4.8-4.6,9.9-8,14.2c-2.2,2.9-5.1,5-8.1,6.9c0.5,2.2,1.3,4.3,2.3,6.2h0c0.2,0.4,0.5,0.9,0.7,1.3
		c0,0,0,0,0,0c0.1,0.2,0.3,0.5,0.5,0.7c9.4-5.8,19.6-9.3,25.8-17.2c0,0,0,0,0,0c1.6-2,2.9-4.3,3.8-6.7c1.4-3.6,2.2-7.5,2.7-11.4
		C41.2,2.2,40.9,2,40.6,1.9L40.6,1.9L40.6,1.9z"/>
	<path class="st1" d="M54.7,17.2C54.7,17.2,54.7,17.2,54.7,17.2c-0.3-0.9-0.7-1.9-1.1-2.7c0,0,0-0.1,0-0.1c0,0,0,0,0,0l0,0
		c-1.4-3-3.4-5.7-5.9-7.9c0,0,0,0,0,0c-0.5-0.4-0.9-0.8-1.4-1.2c0,0,0,0,0,0c-0.5-0.4-1-0.7-1.5-1.1c0,0,0,0,0,0c0,0,0,0,0,0
		c0,0,0,0,0,0c0,0,0,0,0,0c-0.5-0.3-1-0.7-1.5-1c0,0,0,0,0,0c-0.6-0.3-1.1-0.6-1.7-0.9c-0.6,4.5-2,9-4,13.1c-3.2,6.8-8.9,11-15,14.6
		c-4.3,2.5-9,4.7-13.3,7.6c0.3,0.5,0.6,0.9,0.9,1.4C17.2,43.1,23.4,46,28,49.6c3.8-15.5,12.9-19.5,26.6-25c0.5-0.2,1-0.5,1.4-0.7
		C55.8,21.5,55.4,19.3,54.7,17.2L54.7,17.2L54.7,17.2L54.7,17.2z"/>
	<g>
		<path class="st2" d="M28.8,45.3c-0.5,1.5-0.8,2.9-0.8,4.3c2.6,2.1,4.6,4.3,5.9,7.2c5.2-5.1,9.6-9.9,14.3-15.2c0,0,0,0,0,0
			c4.4-4.9,8.3-10.8,7.7-17.8c-3.4,1.5-7,2.9-10.3,4.5C38.2,31.9,31.6,36.4,28.8,45.3L28.8,45.3L28.8,45.3z"/>
		<path class="st3" d="M13.7,22.4c3.4-4.4,5.4-9.4,8-14.2c1.7-3.1,3.4-5.7,5.1-8.1C14.1,2,4.6,13.3,5.2,26.3c0,0,0,0,0,0
			c0.1,1,0.2,2,0.4,3C8.6,27.4,11.5,25.3,13.7,22.4C13.7,22.4,13.7,22.4,13.7,22.4z"/>
		<path class="st4" d="M28,49.6c-4.5-3.6-10.8-6.5-17.9-10.7c2,2.7,4.3,5.3,6.7,7.7c1.6,1.7,3.4,3.4,5,5h0c3.5,3.5,6.9,6.7,8.8,8.5
			c1.1-1.1,2.3-2.2,3.4-3.4C32.6,53.9,30.6,51.7,28,49.6C28,49.6,28,49.6,28,49.6L28,49.6z"/>
	</g>
</g>
<path class="st5" d="M33.7,15.2l-1,9.7c-0.2,1.7-0.2,3.4-0.2,5.1c0,3.2,0.4,5.2,1.1,5.9c0.8,0.7,1.6,1,2.6,1c2.2,0,3.5-1.4,3.9-4.1
	h1.3c-0.7,6.3-3.2,9.4-7.5,9.4c-4.4,0-6.7-2.6-6.7-7.7c0-2.6,0.2-5.8,0.7-9.6l1.3-9.8h-3.4c-1.9,0-3.3,0.3-4.3,0.9
	c-1,0.6-2,1.9-2.9,3.7h-1.2c0.7-2.5,1.6-4.5,2.6-5.9c1-1.5,1.9-2.4,2.8-2.9c0.9-0.5,2.2-0.8,4-0.8h16.7v4.9
	C43.5,15.2,33.7,15.2,33.7,15.2z"/>
</svg>
