<?xml version="1.0" encoding="utf-8"?>
<!-- Generator: Adobe Illustrator 27.6.1, SVG Export Plug-In . SVG Version: 6.00 Build 0)  -->
<svg version="1.1" id="a" xmlns="http://www.w3.org/2000/svg" xmlns:xlink="http://www.w3.org/1999/xlink" x="0px" y="0px"
	 viewBox="0 0 60 60" style="enable-background:new 0 0 60 60;" xml:space="preserve">
<style type="text/css">
	.st0{fill:#0060C7;}
	.st1{fill:#0382E2;}
	.st2{fill:#00C1D6;}
	.st3{fill:#004697;}
	.st4{fill:#B4CE00;}
	.st5{fill:#FFFFFF;}
</style>
<g>
	<path class="st0" d="M40.1,1.8c-0.3-0.1-0.5-0.2-0.8-0.3c0,0,0,0,0,0c-0.6-0.2-1.2-0.4-1.7-0.6c0,0,0,0,0,0c0,0,0,0,0,0
		c-0.6-0.2-1.2-0.3-1.8-0.5c0,0,0,0,0,0c-0.6-0.1-1.2-0.3-1.9-0.4c-0.6-0.1-1.3-0.2-1.9-0.2c0,0,0,0,0,0c-1.9-0.1-3.8-0.1-5.6,0.2
		c-1.7,2.4-3.4,5-5.1,8.1c-2.6,4.8-4.6,9.8-8,14.2c-2.2,2.9-5.1,5-8.1,6.9c0.5,2.2,1.3,4.3,2.3,6.2h0c0.2,0.4,0.5,0.9,0.7,1.3
		c0,0,0,0,0,0c0.1,0.2,0.3,0.5,0.4,0.7c9.4-5.8,19.6-9.3,25.7-17.2c0,0,0,0,0,0c1.6-2,2.9-4.3,3.8-6.7C39.7,9.9,40.4,6,41,2.2
		C40.7,2.1,40.4,1.9,40.1,1.8C40.1,1.8,40.1,1.8,40.1,1.8z"/>
	<path class="st1" d="M54.1,17C54.1,17,54.1,17,54.1,17c-0.3-0.9-0.7-1.8-1.1-2.7c0,0,0-0.1,0-0.1c0,0,0,0,0,0l0,0
		c-1.4-3-3.4-5.7-5.9-7.9c0,0,0,0,0,0c-0.4-0.4-0.9-0.8-1.4-1.2c0,0,0,0,0,0c-0.5-0.4-1-0.7-1.5-1.1c0,0,0,0,0,0c0,0,0,0,0,0
		c0,0,0,0,0,0c0,0,0,0,0,0c-0.5-0.3-1-0.7-1.5-1c0,0,0,0,0,0c-0.6-0.3-1.1-0.6-1.7-0.9c-0.6,4.5-2,9-4,13.1c-3.2,6.8-8.9,11-15,14.6
		c-4.3,2.5-9,4.7-13.3,7.5c0.3,0.5,0.6,0.9,0.9,1.4c7.1,4.1,13.3,7,17.9,10.7C31.3,33.9,40.4,30,54,24.4c0.5-0.2,1-0.5,1.4-0.7
		C55.3,21.4,54.8,19.2,54.1,17C54.1,17,54.1,17,54.1,17z"/>
	<g>
		<path class="st2" d="M28.3,45.2c-0.5,1.5-0.8,2.9-0.8,4.3c2.6,2.1,4.6,4.3,5.9,7.2c5.2-5.1,9.6-9.9,14.3-15.2c0,0,0,0,0,0
			c4.4-4.9,8.3-10.8,7.7-17.8c-3.4,1.5-7,2.9-10.3,4.5C37.7,31.7,31.1,36.3,28.3,45.2z"/>
		<path class="st3" d="M13.3,22.3c3.4-4.4,5.4-9.4,8-14.2C23,5,24.7,2.4,26.4,0C13.6,1.9,4.2,13.2,4.8,26.2c0,0,0,0,0,0
			c0.1,1,0.2,2,0.4,3C8.2,27.3,11,25.2,13.3,22.3L13.3,22.3L13.3,22.3z"/>
		<path class="st4" d="M27.5,49.4C23,45.8,16.7,42.9,9.6,38.8c2,2.7,4.3,5.2,6.7,7.7c1.6,1.7,3.4,3.4,5,5h0c3.5,3.5,6.9,6.7,8.8,8.5
			c1.1-1.1,2.3-2.2,3.4-3.4C32.1,53.8,30.1,51.5,27.5,49.4z"/>
	</g>
</g>
<g>
	<path class="st5" d="M24.6,20.9c0.3,1.1,0.6,3,0.6,4.9c0,4.3-1.5,5-2.5,5c-1.4,0-2.2-1.1-2.2-2.8v-4.9c0-1.2-0.1-1.9-0.2-2.2h-3.9
		c0.2,1.1,0.2,2.5,0.2,4v3.4c0,3.4,2.2,5.5,5.8,5.5c6.1,0,6.7-5.7,6.7-8.2c0-2.3-0.5-3.9-0.8-4.6C28.2,20.9,24.6,20.9,24.6,20.9z"/>
	<path class="st5" d="M40.6,24l-0.4-0.1V23l0.3-0.1c1.3-0.7,1.8-2.6,1.8-3.6c0-2.1-1.4-4.6-5.2-4.6c-1.8,0-3.3,0.5-4.4,1.6
		c-1,0.9-2.1,2.5-2.1,6.6v11.9c0,1.8,0.2,3.4,0.4,4.2h3.6c-0.2-1-0.2-2.3-0.2-4.2v-2h0.7l0.1,0.1c0.7,0.6,1.8,0.9,3.1,0.9
		c3.2,0,5.4-2.2,5.4-5.4C43.8,26.1,42.2,24.3,40.6,24z M37.1,31.1c-1,0-1.8-0.4-2.5-1.2l-0.1-0.1v-7.9c0-1.1,0-4.4,2.4-4.4
		c1.3,0,2.1,1.1,2.1,2.6c0,1.4-0.8,2.6-2,2.9c0,0,0,0-0.1,0v2c0,0,0.1,0,0.1,0c1.7,0.2,2.8,1.4,2.8,3.1
		C39.8,29.5,39.1,31.1,37.1,31.1z"/>
</g>
</svg>
