<?xml version="1.0" encoding="utf-8"?>
<!-- Generator: Adobe Illustrator 27.6.1, SVG Export Plug-In . SVG Version: 6.00 Build 0)  -->
<svg version="1.1" id="a" xmlns="http://www.w3.org/2000/svg" xmlns:xlink="http://www.w3.org/1999/xlink" x="0px" y="0px"
	 viewBox="0 0 60.2 60.2" style="enable-background:new 0 0 60.2 60.2;" xml:space="preserve">
<style type="text/css">
	.st0{fill:#0060C7;}
	.st1{fill:#0382E2;}
	.st2{fill:#00C1D6;}
	.st3{fill:#004697;}
	.st4{fill:#B4CE00;}
	.st5{fill:#FFFFFF;}
</style>
<g>
	<path class="st0" d="M39.7,2.1c-0.3-0.1-0.5-0.2-0.8-0.3c0,0,0,0,0,0c-0.6-0.2-1.2-0.4-1.7-0.6c0,0,0,0,0,0c0,0,0,0,0,0
		c-0.6-0.2-1.2-0.3-1.8-0.5c0,0,0,0,0,0c-0.6-0.1-1.2-0.3-1.9-0.4c-0.6-0.1-1.3-0.2-1.9-0.2c0,0,0,0,0,0C29.7-0.1,27.8,0,26,0.3
		c-1.7,2.4-3.4,5-5.1,8.1c-2.6,4.8-4.6,9.8-8,14.2c-2.2,2.9-5.1,5-8.1,6.9C5.1,31.6,6,33.7,7,35.7h0c0.2,0.4,0.5,0.9,0.7,1.3
		c0,0,0,0,0,0c0.1,0.2,0.3,0.5,0.4,0.7c9.4-5.8,19.6-9.3,25.7-17.2c0,0,0,0,0,0c1.6-2,2.9-4.3,3.8-6.7c1.4-3.6,2.2-7.5,2.7-11.4
		C40.2,2.3,40,2.2,39.7,2.1C39.7,2.1,39.7,2.1,39.7,2.1z"/>
	<path class="st1" d="M53.7,17.3C53.7,17.3,53.7,17.3,53.7,17.3c-0.3-0.9-0.7-1.8-1.1-2.7c0,0,0-0.1,0-0.1c0,0,0,0,0,0l0,0
		c-1.4-3-3.4-5.7-5.9-7.9c0,0,0,0,0,0c-0.4-0.4-0.9-0.8-1.4-1.2c0,0,0,0,0,0c-0.5-0.4-1-0.7-1.5-1.1c0,0,0,0,0,0c0,0,0,0,0,0
		c0,0,0,0,0,0c0,0,0,0,0,0c-0.5-0.3-1-0.7-1.5-1c0,0,0,0,0,0c-0.6-0.3-1.1-0.6-1.7-0.9c-0.6,4.5-2,9-4,13.1c-3.2,6.8-8.9,11-15,14.6
		c-4.3,2.5-9,4.7-13.3,7.5c0.3,0.5,0.6,0.9,0.9,1.4c7.1,4.1,13.3,7,17.9,10.7c3.8-15.5,12.9-19.5,26.5-25c0.5-0.2,1-0.5,1.4-0.7
		C54.8,21.6,54.4,19.4,53.7,17.3C53.7,17.3,53.7,17.3,53.7,17.3z"/>
	<g>
		<path class="st2" d="M27.8,45.4c-0.5,1.5-0.8,2.9-0.8,4.3c2.6,2.1,4.6,4.3,5.9,7.2c5.2-5.1,9.6-9.9,14.3-15.2c0,0,0,0,0,0
			c4.4-4.9,8.3-10.8,7.7-17.8c-3.4,1.5-7,2.9-10.3,4.5C37.2,32,30.7,36.5,27.8,45.4z"/>
		<path class="st3" d="M12.8,22.6c3.4-4.4,5.4-9.4,8-14.2c1.7-3.1,3.4-5.7,5.1-8.1C13.2,2.1,3.7,13.5,4.3,26.4c0,0,0,0,0,0
			c0.1,1,0.2,2,0.4,3C7.7,27.5,10.6,25.4,12.8,22.6L12.8,22.6L12.8,22.6z"/>
		<path class="st4" d="M27,49.7C22.5,46.1,16.3,43.2,9.2,39c2,2.7,4.3,5.2,6.7,7.7c1.6,1.7,3.4,3.4,5,5h0c3.5,3.5,6.9,6.7,8.8,8.5
			c1.1-1.1,2.3-2.2,3.4-3.4C31.6,54,29.6,51.8,27,49.7z"/>
	</g>
</g>
<g>
	<path class="st5" d="M21.7,29.1l-8.1,3.8l16,7.5l16-7.5l-8.1-3.8"/>
	<path class="st4" d="M21.8,21.4l-8.2,3.8l16,7.5l16-7.5l-8.2-3.8"/>
	<path class="st2" d="M29.6,10l-16,7.5l16,7.5l16-7.5C45.6,17.6,29.6,10,29.6,10z"/>
</g>
</svg>
